<svg width="1016" height="194" viewBox="0 0 1016 194" fill="none" xmlns="http://www.w3.org/2000/svg">
<g filter="url(#filter0_d_915_5395)">
<path d="M142.431 183.621H105.379L38.6379 71.3555V183.621H4V13.0818H41.0517L107.793 125.467V13.0818H142.431V183.621Z" fill="white"/>
<path d="M294.138 118.807C294.138 128.321 292.408 137.201 288.948 145.446C285.489 153.613 280.782 160.708 274.828 166.734C268.874 172.68 261.874 177.398 253.828 180.886C245.862 184.295 237.293 186 228.121 186C219.029 186 210.46 184.295 202.414 180.886C194.448 177.398 187.448 172.68 181.414 166.734C175.46 160.708 170.753 153.613 167.293 145.446C163.833 137.201 162.103 128.321 162.103 118.807C162.103 109.134 163.833 100.175 167.293 91.9297C170.753 83.6841 175.46 76.5882 181.414 70.6419C187.448 64.6164 194.448 59.899 202.414 56.4898C210.46 53.0806 219.029 51.376 228.121 51.376C237.293 51.376 245.862 53.0013 253.828 56.2519C261.874 59.4233 268.874 63.9821 274.828 69.9284C280.782 75.7954 285.489 82.8913 288.948 91.2161C292.408 99.4616 294.138 108.659 294.138 118.807ZM260.948 118.807C260.948 113.574 260.063 108.857 258.293 104.655C256.603 100.373 254.27 96.7263 251.293 93.7136C248.316 90.6215 244.816 88.2826 240.793 86.6969C236.851 85.032 232.626 84.1995 228.121 84.1995C223.615 84.1995 219.351 85.032 215.328 86.6969C211.385 88.2826 207.925 90.6215 204.948 93.7136C202.052 96.7263 199.759 100.373 198.069 104.655C196.379 108.857 195.534 113.574 195.534 118.807C195.534 123.723 196.379 128.281 198.069 132.483C199.759 136.685 202.052 140.332 204.948 143.425C207.925 146.517 211.385 148.974 215.328 150.798C219.351 152.542 223.615 153.414 228.121 153.414C232.626 153.414 236.851 152.582 240.793 150.917C244.816 149.252 248.316 146.913 251.293 143.9C254.27 140.887 256.603 137.24 258.293 132.959C260.063 128.678 260.948 123.96 260.948 118.807Z" fill="white"/>
<path d="M345.19 183.621L295.948 56.2519H333.483L361.724 135.694L389.845 56.2519H427.5L378.259 183.621H345.19Z" fill="white"/>
<path d="M561.345 183.621H553.379L540.586 166.139C537.448 168.914 534.109 171.531 530.569 173.988C527.109 176.367 523.448 178.468 519.586 180.292C515.724 182.036 511.741 183.423 507.638 184.454C503.615 185.485 499.511 186 495.328 186C486.236 186 477.667 184.494 469.621 181.481C461.655 178.468 454.655 174.107 448.621 168.399C442.667 162.611 437.96 155.555 434.5 147.23C431.04 138.905 429.31 129.431 429.31 118.807C429.31 108.896 431.04 99.8184 434.5 91.5729C437.96 83.2481 442.667 76.1125 448.621 70.1662C454.655 64.2199 461.655 59.6215 469.621 56.3708C477.667 53.0409 486.236 51.376 495.328 51.376C499.511 51.376 503.655 51.8913 507.759 52.922C511.862 53.9527 515.845 55.3798 519.707 57.2033C523.569 59.0269 527.23 61.1675 530.69 63.6253C534.23 66.0831 537.529 68.7391 540.586 71.5934L553.379 56.4898H561.345V183.621ZM528.155 118.807C528.155 114.367 527.27 110.086 525.5 105.963C523.81 101.761 521.477 98.0742 518.5 94.9028C515.523 91.6522 512.023 89.0754 508 87.1726C504.057 85.1905 499.833 84.1995 495.328 84.1995C490.822 84.1995 486.557 84.9527 482.534 86.4591C478.592 87.9655 475.132 90.1854 472.155 93.1189C469.259 96.0524 466.966 99.6995 465.276 104.06C463.586 108.341 462.741 113.257 462.741 118.807C462.741 124.357 463.586 129.312 465.276 133.673C466.966 137.954 469.259 141.561 472.155 144.495C475.132 147.428 478.592 149.648 482.534 151.155C486.557 152.661 490.822 153.414 495.328 153.414C499.833 153.414 504.057 152.463 508 150.56C512.023 148.578 515.523 146.001 518.5 142.83C521.477 139.579 523.81 135.893 525.5 131.77C527.27 127.568 528.155 123.247 528.155 118.807Z" fill="white"/>
<path d="M651.379 183.621C643.414 183.621 635.931 182.155 628.931 179.221C621.931 176.208 615.776 172.125 610.466 166.972C605.236 161.739 601.092 155.674 598.034 148.776C595.057 141.879 593.569 134.505 593.569 126.656V88.8376H577.517V56.4898H593.569V5.58951H626.397V56.4898H676.362V88.8376H626.397V126.656C626.397 130.065 627.04 133.276 628.328 136.289C629.615 139.223 631.385 141.799 633.638 144.019C635.891 146.239 638.546 148.023 641.603 149.371C644.661 150.639 647.92 151.274 651.379 151.274H676.362V183.621H651.379Z" fill="white"/>
<path d="M733.81 21.6445C733.81 24.6573 733.207 27.4719 732 30.0882C730.874 32.7046 729.305 35.0038 727.293 36.9859C725.282 38.8887 722.908 40.4348 720.172 41.624C717.517 42.734 714.661 43.289 711.603 43.289C708.546 43.289 705.649 42.734 702.914 41.624C700.259 40.4348 697.925 38.8887 695.914 36.9859C693.983 35.0038 692.414 32.7046 691.207 30.0882C690.08 27.4719 689.517 24.6573 689.517 21.6445C689.517 18.711 690.08 15.9361 691.207 13.3197C692.414 10.624 693.983 8.32481 695.914 6.42199C697.925 4.4399 700.259 2.89386 702.914 1.78389C705.649 0.594629 708.546 0 711.603 0C714.661 0 717.517 0.594629 720.172 1.78389C722.908 2.89386 725.282 4.4399 727.293 6.42199C729.305 8.32481 730.874 10.624 732 13.3197C733.207 15.9361 733.81 18.711 733.81 21.6445ZM728.138 183.621H694.948V56.2519H728.138V183.621Z" fill="white"/>
<path d="M878.276 118.807C878.276 128.321 876.546 137.201 873.086 145.446C869.626 153.613 864.92 160.708 858.966 166.734C853.011 172.68 846.011 177.398 837.966 180.886C830 184.295 821.431 186 812.259 186C803.167 186 794.598 184.295 786.552 180.886C778.586 177.398 771.586 172.68 765.552 166.734C759.598 160.708 754.891 153.613 751.431 145.446C747.971 137.201 746.241 128.321 746.241 118.807C746.241 109.134 747.971 100.175 751.431 91.9297C754.891 83.6841 759.598 76.5882 765.552 70.6419C771.586 64.6164 778.586 59.899 786.552 56.4898C794.598 53.0806 803.167 51.376 812.259 51.376C821.431 51.376 830 53.0013 837.966 56.2519C846.011 59.4233 853.011 63.9821 858.966 69.9284C864.92 75.7954 869.626 82.8913 873.086 91.2161C876.546 99.4616 878.276 108.659 878.276 118.807ZM845.086 118.807C845.086 113.574 844.201 108.857 842.431 104.655C840.741 100.373 838.408 96.7263 835.431 93.7136C832.454 90.6215 828.954 88.2826 824.931 86.6969C820.988 85.032 816.764 84.1995 812.259 84.1995C807.753 84.1995 803.488 85.032 799.466 86.6969C795.523 88.2826 792.063 90.6215 789.086 93.7136C786.19 96.7263 783.897 100.373 782.207 104.655C780.517 108.857 779.672 113.574 779.672 118.807C779.672 123.723 780.517 128.281 782.207 132.483C783.897 136.685 786.19 140.332 789.086 143.425C792.063 146.517 795.523 148.974 799.466 150.798C803.488 152.542 807.753 153.414 812.259 153.414C816.764 153.414 820.988 152.582 824.931 150.917C828.954 149.252 832.454 146.913 835.431 143.9C838.408 140.887 840.741 137.24 842.431 132.959C844.201 128.678 845.086 123.96 845.086 118.807Z" fill="white"/>
<path d="M929.448 183.621H896.5V56.2519H904.465L915.328 68.6202C920.638 63.8632 926.632 60.2161 933.31 57.679C940.069 55.0627 947.109 53.7545 954.431 53.7545C962.316 53.7545 969.759 55.2609 976.759 58.2737C983.759 61.2072 989.874 65.2903 995.103 70.523C1000.33 75.6765 1004.44 81.7417 1007.41 88.7187C1010.47 95.6164 1012 102.99 1012 110.839V183.621H979.052V110.839C979.052 107.509 978.408 104.377 977.121 101.444C975.833 98.4309 974.063 95.8146 971.81 93.5946C969.557 91.3747 966.943 89.6304 963.965 88.3619C960.988 87.0934 957.81 86.4591 954.431 86.4591C950.971 86.4591 947.713 87.0934 944.655 88.3619C941.598 89.6304 938.943 91.3747 936.69 93.5946C934.437 95.8146 932.667 98.4309 931.379 101.444C930.092 104.377 929.448 107.509 929.448 110.839V183.621Z" fill="white"/>
</g>
<defs>
<filter id="filter0_d_915_5395" x="0" y="0" width="1016" height="194" filterUnits="userSpaceOnUse" color-interpolation-filters="sRGB">
<feFlood flood-opacity="0" result="BackgroundImageFix"/>
<feColorMatrix in="SourceAlpha" type="matrix" values="0 0 0 0 0 0 0 0 0 0 0 0 0 0 0 0 0 0 127 0" result="hardAlpha"/>
<feOffset dy="4"/>
<feGaussianBlur stdDeviation="2"/>
<feComposite in2="hardAlpha" operator="out"/>
<feColorMatrix type="matrix" values="0 0 0 0 0.989948 0 0 0 0 0.976749 0 0 0 0 0.976749 0 0 0 0.14 0"/>
<feBlend mode="normal" in2="BackgroundImageFix" result="effect1_dropShadow_915_5395"/>
<feBlend mode="normal" in="SourceGraphic" in2="effect1_dropShadow_915_5395" result="shape"/>
</filter>
</defs>
</svg>
