<svg width="920" height="145" viewBox="0 0 920 145" fill="none" xmlns="http://www.w3.org/2000/svg">
<path fill-rule="evenodd" clip-rule="evenodd" d="M56.8157 12.5015C56.8157 5.5971 62.4119 2.19053e-05 69.3152 2.19053e-05H101.132C108.035 2.19053e-05 113.631 5.59709 113.631 12.5015V44.7321C113.631 51.6364 108.035 57.2333 101.132 57.2333H69.3152C62.4119 57.2333 56.8157 62.8305 56.8157 69.7347V101.148C56.8157 108.052 51.2194 113.649 44.3162 113.649H12.4995C5.59635 113.649 0 108.052 0 101.148V68.917C0 62.0128 5.59635 56.4158 12.4995 56.4158H44.3162C51.2194 56.4158 56.8157 50.8188 56.8157 43.9144V12.5015Z" fill="white"/>
<path fill-rule="evenodd" clip-rule="evenodd" d="M894.274 105.044L891.785 112.778H891.863L894.274 105.044Z" fill="white"/>
<path fill-rule="evenodd" clip-rule="evenodd" d="M753.574 38.5044C750.465 43.9822 748.911 49.7823 748.911 55.9046H770.134C770.134 52.8971 770.67 50.0508 771.742 47.3656C772.921 44.6804 774.904 42.5322 777.691 40.9211C780.478 39.31 784.283 38.5044 789.107 38.5044C795.538 38.5044 800.04 40.1155 802.613 43.3378C805.185 46.5601 806.686 50.9101 807.115 56.3879H827.052C826.195 45.11 822.55 36.2488 816.119 29.8043C809.794 23.2524 800.791 19.9765 789.107 19.9765C780.639 19.9765 773.404 21.695 767.401 25.1321C761.398 28.5691 756.789 33.0266 753.574 38.5044Z" fill="white"/>
<path fill-rule="evenodd" clip-rule="evenodd" d="M282.432 74.4325H261.369C262.334 82.5955 264.799 89.7382 268.765 95.8605C272.731 101.983 277.983 106.762 284.522 110.2C291.06 113.637 298.564 115.355 307.032 115.355C314.321 115.355 320.806 114.066 326.487 111.488C332.168 108.803 336.884 105.151 340.636 100.533C344.387 95.8068 346.906 90.3289 348.192 84.0993H326.969C325.575 87.7511 323.217 90.866 319.894 93.4438C316.679 95.9142 312.391 97.1494 307.032 97.1494C299.421 97.1494 293.633 95.0549 289.667 90.866C285.701 86.5697 283.289 81.0918 282.432 74.4325Z" fill="white"/>
<path d="M159.676 0L194.888 112.779H203.892H214.343H223.347L258.88 0H237.817L209.155 95.2832L180.9 0H159.676Z" fill="white"/>
<path d="M282.432 63.7991V74.4325H348.032C349.211 65.8398 348.836 58.1601 346.906 51.3934C345.084 44.6267 342.19 38.9341 338.224 34.3155C334.365 29.5895 329.702 26.0451 324.236 23.6821C318.876 21.2117 313.141 19.9765 307.032 19.9765C298.885 19.9765 291.436 21.695 284.683 25.1321C278.037 28.5691 272.57 33.5636 268.283 40.1155C264.102 46.56 261.69 54.4546 261.047 63.7991H282.432ZM328.156 57.8379H282.894C283.791 52.4163 285.995 48.0663 289.506 44.7878C294.222 40.3841 300.064 38.1822 307.032 38.1822C312.177 38.1822 316.357 39.3637 319.573 41.7267C322.789 44.0897 325.093 47.1508 326.487 50.9101C327.403 53.1393 327.959 55.4486 328.156 57.8379Z" fill="white"/>
<path d="M387.517 50.4267C385.373 54.2934 384.301 59.825 384.301 67.0213V112.777H364.042V22.5543H384.301V36.7052C384.951 35.0674 385.755 33.4653 386.713 31.8988C388.857 28.4617 392.072 25.6154 396.36 23.3598C400.648 21.1043 406.382 19.9765 413.564 19.9765V39.9544C407.24 39.9544 401.88 40.76 397.485 42.3711C393.091 43.8748 389.768 46.56 387.517 50.4267Z" fill="white"/>
<path d="M448.517 94.8938C444.873 92.6382 442.783 89.0938 442.247 84.2604H421.988C422.202 90.1678 424.024 95.4846 427.454 100.211C430.992 104.829 435.654 108.535 441.443 111.327C447.231 114.012 453.662 115.355 460.737 115.355C468.347 115.355 474.939 114.174 480.513 111.811C486.087 109.34 490.375 105.957 493.376 101.661C496.484 97.3642 498.039 92.3697 498.039 86.6771C498.039 81.6289 497.02 77.5474 494.984 74.4325C493.054 71.2103 490.482 68.6862 487.266 66.8602C484.05 65.0343 480.46 63.638 476.494 62.6713C472.635 61.7046 468.722 60.8991 464.756 60.2546C460.898 59.6102 457.307 58.912 453.984 58.1602C450.768 57.3009 448.142 56.1731 446.105 54.7768C444.176 53.2731 443.211 51.2323 443.211 48.6545C443.211 45.3248 444.551 42.5859 447.231 40.4378C450.018 38.2896 454.145 37.2155 459.611 37.2155C464.113 37.2155 467.972 38.2896 471.188 40.4378C474.511 42.5859 476.386 46.0767 476.815 50.9101H496.592C496.592 44.7878 494.93 39.4174 491.607 34.7988C488.285 30.1803 483.836 26.5821 478.262 24.0043C472.796 21.3191 466.793 19.9765 460.254 19.9765C452.966 19.9765 446.481 21.3728 440.799 24.1654C435.226 26.8506 430.884 30.3951 427.776 34.7988C424.667 39.2026 423.113 43.8211 423.113 48.6545C423.113 53.8101 424.078 58.0527 426.007 61.3824C428.044 64.6047 430.67 67.1824 433.886 69.1158C437.209 70.9417 440.799 72.3918 444.658 73.4658C448.624 74.4325 452.537 75.2381 456.396 75.8825C460.362 76.527 463.952 77.2788 467.168 78.1381C470.384 78.89 473.01 79.9103 475.047 81.1992C477.083 82.4881 478.102 84.3141 478.102 86.6771C478.102 90.6512 476.547 93.5512 473.439 95.3771C470.33 97.2031 466.364 98.1161 461.541 98.1161C456.503 98.1161 452.162 97.042 448.517 94.8938Z" fill="white"/>
<path fill-rule="evenodd" clip-rule="evenodd" d="M510.458 74.4325H531.521C532.379 81.0918 534.79 86.5697 538.756 90.866C542.722 95.0549 548.511 97.1494 556.121 97.1494C561.481 97.1494 565.768 95.9142 568.984 93.4438C572.307 90.866 574.665 87.7511 576.058 84.0993H597.282C595.996 90.3289 593.477 95.8068 589.725 100.533C585.973 105.151 581.257 108.803 575.576 111.488C569.895 114.066 563.41 115.355 556.121 115.355C547.653 115.355 540.15 113.637 533.611 110.2C527.073 106.762 521.82 101.983 517.854 95.8605C513.888 89.7382 511.423 82.5955 510.458 74.4325Z" fill="white"/>
<path fill-rule="evenodd" clip-rule="evenodd" d="M531.521 63.7991V74.4325H597.121C598.3 65.8398 597.925 58.1601 595.996 51.3934C594.173 44.6267 591.279 38.9341 587.313 34.3155C583.454 29.5895 578.792 26.0451 573.325 23.6821C567.966 21.2117 562.231 19.9765 556.121 19.9765C547.975 19.9765 540.525 21.695 533.772 25.1321C527.126 28.5691 521.66 33.5636 517.372 40.1155C513.192 46.56 510.78 54.4546 510.137 63.7991H531.521ZM538.596 44.7878C535.084 48.0663 532.88 52.4163 531.983 57.8379H577.246C577.049 55.4486 576.492 53.1393 575.576 50.9101C574.182 47.1508 571.878 44.0897 568.662 41.7267C565.447 39.3637 561.266 38.1822 556.121 38.1822C549.154 38.1822 543.312 40.3841 538.596 44.7878Z" fill="white"/>
<path fill-rule="evenodd" clip-rule="evenodd" d="M687.462 17.8835C693.25 17.8835 698.181 18.4206 702.254 19.4946C706.434 20.4613 709.596 22.341 711.74 25.1336C713.991 27.9262 715.117 31.954 715.117 37.217C715.117 42.48 713.991 46.5078 711.74 49.3005C709.596 52.0931 706.434 54.0264 702.254 55.1005C698.181 56.0672 693.25 56.5505 687.462 56.5505H669.936V17.8835H687.462ZM713.348 3.70561C706.059 1.23522 697.43 2.19053e-05 687.462 2.19053e-05H669.936V10.6335H649.356V112.779H669.936V74.5951H687.462C697.43 74.5951 706.059 73.3599 713.348 70.8895C720.744 68.4191 726.425 64.445 730.391 58.9672C734.464 53.4894 736.501 46.2393 736.501 37.217C736.501 28.0873 734.464 20.8372 730.391 15.4668C726.425 9.989 720.744 6.06859 713.348 3.70561Z" fill="white"/>
<path d="M782.354 115.355C776.458 115.355 771.206 114.281 766.597 112.133C761.988 109.877 758.343 106.655 755.664 102.466C752.984 98.2772 751.644 93.1753 751.644 87.1604C751.644 80.1789 753.306 74.6473 756.628 70.5658C760.058 66.4843 764.507 63.4232 769.974 61.3824C775.547 59.3416 781.55 57.999 787.981 57.3546C794.52 56.7101 800.898 56.3879 807.115 56.3879V66.0547H827.213V112.777H807.115V103.433C804.542 107.192 801.058 110.146 796.664 112.294C792.376 114.335 787.606 115.355 782.354 115.355ZM807.115 77.1714V73.4658C795.109 73.1436 786.374 74.1103 780.907 76.3659C775.44 78.514 772.707 81.8974 772.707 86.516C772.707 90.2752 773.993 93.0142 776.566 94.7327C779.138 96.3438 782.461 97.1494 786.534 97.1494C789.964 97.1494 793.234 96.5049 796.342 95.216C799.558 93.9271 802.13 91.8327 804.06 88.9326C806.096 85.9252 807.115 82.0048 807.115 77.1714Z" fill="white"/>
<path d="M871.871 112.778L866.78 127.761H845.878V145H881.412L891.785 112.778L894.274 105.044L920 22.5545H898.294L878.035 94.5045L857.776 22.5545H836.07L864.208 112.778H871.871Z" fill="white"/>
</svg>
