<svg width="893" height="303" viewBox="0 0 893 303" fill="none" xmlns="http://www.w3.org/2000/svg">
<path d="M124.104 18.5825C133.609 9.36552 139.596 -1.99307 155.268 0.298662C168.751 2.26014 186.871 29.2905 198.325 37.4467C222.312 40.7492 262.761 26.1181 265.259 61.9352C266.219 75.7656 264.35 90.6168 265.379 104.557C274.455 115.446 286.908 124.732 295.923 135.481C317.942 161.73 278.842 180.104 265.379 198.608C262.341 219.204 275.404 261.506 244.531 264.728C230.088 266.239 213.727 263.667 199.075 264.978C188.45 273.875 179.405 285.944 168.931 294.801C158.456 303.657 149.101 306.349 137.507 297.803L104.375 264.978C89.6227 263.737 73.4113 266.119 58.839 264.808C27.0059 261.956 41.5882 219.634 38.08 198.598C32.6029 193.584 27.7355 187.94 22.5183 182.676C7.56621 167.565 -11.014 156.366 8.22581 133.949C17.1811 123.522 29.1348 114.455 38.06 103.817C39.4093 88.9054 36.7707 72.1729 38.2199 57.4818C41.1484 27.8494 84.8252 40.3489 104.365 37.4467C110.831 31.0518 117.598 24.9072 124.114 18.5925L124.104 18.5825ZM185.802 38.3373C186.131 37.0264 185.262 36.8362 184.682 36.0857C181.234 31.5823 164.373 14.5394 159.945 11.347C154.998 7.77428 148.871 7.18387 143.654 10.5764C139.946 12.9882 121.026 32.1127 117.988 36.0857C117.408 36.8462 116.538 37.0364 116.868 38.3373H135.598C137.617 29.3806 138.937 10.9467 150.98 10.5564C158.366 10.3162 161.884 17.2314 163.853 23.1759C164.633 25.5177 166.722 38.3373 168.191 38.3373H185.802ZM150.34 18.9227C148.921 19.383 146.223 26.7686 145.713 28.58C139.066 52.0977 139.886 80.4291 137.827 104.747C138.147 107.179 144.673 113.374 146.842 115.215C148.262 116.416 150.041 117.827 151.72 118.608C152.599 118.608 163.963 107.64 164.443 106.569C165.293 104.687 164.943 96.8115 164.863 94.1795C164.583 84.8725 163.513 74.3045 162.574 64.9674C161.495 54.2694 159.296 30.2112 154.488 21.3145C153.599 19.6633 152.439 18.2322 150.34 18.9127V18.9227ZM95.8994 45.843H59.5586C57.8595 45.843 51.6928 48.6852 50.2635 50.0462C48.9742 51.2771 46.4456 55.8806 46.4456 57.4718V96.0909C48.5245 94.1894 59.9684 83.8617 59.9584 82.2204C54.4213 74.9649 41.2384 55.0099 55.0011 49.5458C65.8253 45.2526 78.3087 59.8436 82.7563 59.3732C83.9257 59.2531 93.5206 49.746 94.78 48.1047C95.3596 47.3441 96.2292 47.154 95.8994 45.853V45.843ZM256.234 95.3303V56.7112C256.234 51.8976 247.619 45.843 243.121 45.843H206.781C206.451 47.154 207.32 47.3441 207.9 48.0947C211.018 52.1678 216.465 56.1007 220.004 60.0137C227.44 54.7197 248.229 40.3889 253.016 55.4303C256.004 64.8073 247.269 74.7147 242.712 82.2104C242.712 83.1911 252.416 93.0185 253.976 94.2094C254.735 94.7899 254.925 95.6605 256.224 95.3303H256.234ZM107.513 46.5936C106.244 46.5936 91.9115 62.6757 89.9625 64.8573L129.611 98.3325L134.119 46.5936H107.513ZM195.167 46.5936H168.571C169.28 52.428 170.28 58.3724 170.81 64.2169C171.739 74.5146 171.649 85.5329 173.098 95.6905C173.248 96.7713 172.389 97.8822 174.198 97.592L212.717 64.8573C210.519 62.3655 196.856 47.0739 195.167 46.5936ZM58.1794 57.1915C57.2698 57.5018 56.98 58.0422 56.91 58.9629C56.5702 63.5263 65.4055 75.6955 68.314 79.8186C81.3371 98.2525 97.2986 114.975 112.341 131.738C113.06 132.658 113.77 132.799 114.889 132.789C116.329 132.789 129.022 130.106 129.641 129.476C130.671 124.082 132.72 118.608 132.46 113.104C116.888 98.4326 100.427 82.9309 83.0961 70.2714C78.9783 67.2591 74.1009 63.6264 69.6932 61.1945C66.9647 59.6934 61.0878 56.2108 58.1794 57.1915ZM204.222 116.766C214.576 105.068 226.26 91.8677 235.126 79.088C240.393 71.4923 256.084 49.1355 234.486 60.454C229.259 63.1961 223.652 67.5193 218.844 71.042C198.375 86.0633 179.915 104.297 161.085 121.22C160.625 123.391 163.593 121.84 164.073 122.341C164.553 122.841 165.193 134.53 166.462 136.451C168.271 137.202 179.365 138.333 179.815 138.843C180.405 139.514 178.306 142.456 179.435 143.337C187.751 134.56 196.226 125.813 204.222 116.776V116.766ZM46.4555 107.7V133.569L98.1582 129.436L65.4255 90.1464C64.486 89.8162 63.9763 90.3166 63.2766 90.7869C61.8674 91.7376 46.7754 106.559 46.4555 107.7ZM256.234 133.579V107.71C256.234 106.519 240.763 91.6976 239.413 90.7969C238.684 90.3066 238.224 89.8262 237.224 90.1264L204.532 129.446L256.234 133.579ZM139.366 122.331C141.235 125.203 148.951 126.694 147.552 122.05C147.302 121.23 136.528 114.054 135.618 114.825C134.269 120.689 134.179 126.864 131.91 132.488L113.89 135.831C115.079 137.562 124.274 153.854 125.144 145.168C125.394 142.636 122.505 141.375 122.875 138.833C135.129 138.683 138.397 134.009 139.366 122.331ZM38.2099 134.7C39.4093 131.007 37.3204 120.819 38.2099 116.326C30.534 124.792 18.8402 133.349 12.0038 142.216C6.39681 149.491 7.3263 154.705 12.7334 161.69C19.3799 170.277 30.7539 178.593 38.2099 186.809V166.564C28.9148 165.904 10.6545 163.332 10.6246 151.192C10.6046 143.527 18.3605 140.124 24.5572 138.283C26.9459 137.572 37.7901 135.971 38.2099 134.7ZM264.47 134.7C264.47 135.841 276.034 137.642 278.123 138.283C286.228 140.805 296.703 147.149 290.266 156.767C285.009 164.623 272.156 164.432 264.47 167.695V186.069C265.779 186.399 265.969 185.528 266.719 184.948C272.066 180.845 287.078 165.613 291.206 160.339C295.404 154.985 295.394 148.44 291.436 142.946C288.247 138.523 271.216 121.64 266.719 118.188C265.959 117.607 265.769 116.737 264.47 117.067V134.7ZM161.075 129.826C159.735 128.435 153.309 135.14 151.08 134.93C149.171 134.75 143.954 129.556 142.735 129.826C140.556 130.307 141.355 138.243 139.326 139.934C137.677 141.315 131.93 141.305 129.611 141.835C128.552 142.856 134.779 149.481 134.829 151.202C134.899 153.484 130.201 157.707 129.611 160.189C129.981 161.941 138.737 161.82 139.936 163.001C141.035 164.092 140.885 173.199 142.725 173.309C145.133 172.248 149.261 167.945 151.66 168.065C154.508 168.205 157.757 173.289 161.085 173.319C160.935 171.788 162.194 163.562 162.714 162.961C163.234 162.361 171.509 161.15 173.068 161.32C174.338 160.129 167.841 153.054 167.831 151.202C167.831 149.161 174.388 143.216 173.068 141.835C170.83 141.335 164.843 141.265 163.324 139.954C162.114 138.903 161.095 131.768 161.075 129.826ZM101.736 137.542C81.497 138.543 57.8195 139.714 38.05 143.537C29.4746 145.198 6.43679 150.232 27.5556 156.597C51.5029 163.812 80.4376 162.321 105.224 165.063C106.794 164.773 119.237 152.263 119.067 151.292C115.929 148.37 108.403 137.572 104.515 137.252C103.495 137.172 102.616 137.502 101.726 137.542H101.736ZM196.826 137.472C195.377 137.912 184.302 149.972 184.302 151.212C184.302 153.024 195.626 164.733 197.456 165.073C218.384 163.472 239.413 163.051 260.142 159.609C265.279 158.748 272.056 157.787 276.873 156.106C278.712 155.466 283.99 153.344 283.99 151.202C284.01 150.302 283.41 149.871 282.86 149.301C280.012 146.349 264.16 143.467 259.483 142.706C239.034 139.384 217.485 138.773 196.826 137.482V137.472ZM188.8 167.315L181.664 156.086C175.617 153.995 177.506 160.63 180.554 163.562C168.551 164.392 163.803 167.245 164.063 180.064C159.616 179.113 156.927 174.03 155.018 181.135L166.672 188.32C168.361 187.97 169.181 173.049 170.79 170.677L188.78 167.315H188.8ZM122.875 163.562L125.504 156.837C109.642 173.87 93.2008 190.692 78.6884 208.956C73.931 214.95 57.2798 236.287 56.95 242.761C56.81 245.604 58.6291 245.484 60.9779 245.253C71.0425 244.253 109.022 211.258 118.387 202.941L144.594 178.553C143.244 176.151 140.486 181.725 138.977 179.324C137.807 177.462 137.527 167.645 135.888 166.494C134.249 165.343 123.595 164.542 122.875 163.562ZM46.4555 168.816V194.685C46.4555 195.876 61.9274 210.687 63.2766 211.598C63.9763 212.068 64.486 212.569 65.4255 212.238L98.8978 172.569L46.4555 168.816ZM256.234 168.816L204.532 172.949L237.224 212.269C238.224 212.569 238.684 212.088 239.413 211.598C240.763 210.697 256.234 195.876 256.234 194.685V168.816ZM187.171 170.507C185.572 170.607 173.898 172.779 173.428 173.299C172.789 176.562 169.26 187.23 170.43 189.781C187.051 204.973 203.892 220.855 222.282 233.915C230.998 240.099 255.405 257.202 241.102 232.324C230.908 214.58 208.51 189.471 194.067 174.42C191.539 171.778 191.049 170.277 187.171 170.507ZM154.019 185.638C153.229 185.048 152.499 184.337 151.57 183.927C148.322 186.349 138.337 193.774 137.817 197.647C139.676 221.866 139.216 249.086 145.403 272.614C146.672 277.428 150.131 289.697 154.718 280.55C161.155 267.71 164.383 223.857 164.853 208.215C164.933 205.583 165.283 197.707 164.433 195.826C163.993 194.865 155.428 186.699 154.019 185.638ZM134.109 256.552L129.601 204.062L89.9325 237.508C91.9914 239.759 106.933 256.552 108.253 256.552H134.109ZM168.571 256.552H194.417C195.736 256.552 210.669 239.779 212.717 237.538L173.448 204.052L168.571 256.552ZM95.1497 256.552C95.4796 255.241 94.61 255.051 94.0303 254.3C93.0209 252.979 83.456 243.332 82.6764 243.182C74.6107 246.834 59.5986 259.984 51.373 250.507C43.767 241.751 55.3908 228.11 59.8884 220.294L46.4555 207.065V244.933C46.4555 247.095 49.434 252.158 51.323 253.56C52.7323 254.6 58.1094 256.552 59.5686 256.552H95.1598H95.1497ZM256.234 207.815C254.925 207.485 254.735 208.355 253.986 208.936C252.416 210.137 243.571 219.074 243.461 220.224C247.069 228.22 259.912 242.952 250.617 251.318C241.932 259.124 228.039 246.754 220.004 243.182C219.224 243.332 209.669 252.979 208.65 254.3C208.07 255.061 207.2 255.251 207.53 256.552H243.121C245.11 256.552 249.668 254.871 251.357 253.55C252.906 252.339 256.234 247.375 256.234 245.684V207.815ZM135.608 264.798H116.878L143.474 291.788C148.222 295.211 152.739 295.741 157.877 292.779C162.394 290.177 181.084 271.753 184.682 267.05C185.262 266.289 186.131 266.099 185.802 264.798H167.072C165.053 273.805 163.873 291.438 151.72 291.868C138.787 292.329 137.877 274.265 135.608 264.798Z" fill="white"/>
<path d="M369.573 93.4474C369.573 95.4878 369.108 97.2528 368.177 98.7426C367.278 100.232 365.93 101.382 364.132 102.192C362.366 103.001 360.183 103.406 357.583 103.406C356.299 103.406 355.111 103.325 354.019 103.163C352.928 103.034 351.901 102.823 350.937 102.532C350.006 102.24 349.108 101.884 348.241 101.463V95.6335C349.685 96.2812 351.242 96.8804 352.912 97.431C354.613 97.9492 356.267 98.2082 357.872 98.2082C359.092 98.2082 360.087 98.0301 360.857 97.6739C361.628 97.2852 362.19 96.7671 362.543 96.1193C362.928 95.4392 363.121 94.6619 363.121 93.7875C363.121 92.8159 362.88 91.9901 362.398 91.3099C361.949 90.6298 361.243 89.9983 360.279 89.4153C359.316 88.8324 358.064 88.2332 356.523 87.6179C355.432 87.1321 354.389 86.6139 353.393 86.0634C352.43 85.4804 351.579 84.7841 350.841 83.9744C350.135 83.1648 349.573 82.2094 349.156 81.1082C348.77 80.0071 348.578 78.7117 348.578 77.2219C348.578 75.2463 349.043 73.546 349.974 72.121C350.905 70.696 352.206 69.6111 353.875 68.8662C355.544 68.1213 357.486 67.7489 359.702 67.7489C361.564 67.7489 363.265 67.9432 364.806 68.3318C366.379 68.7205 367.856 69.271 369.236 69.9835L367.214 74.9872C365.898 74.3719 364.597 73.8861 363.313 73.5298C362.061 73.1736 360.793 72.9955 359.509 72.9955C358.514 72.9955 357.679 73.1736 357.005 73.5298C356.331 73.8537 355.817 74.3233 355.464 74.9386C355.143 75.554 354.982 76.2665 354.982 77.0761C354.982 78.0153 355.207 78.8088 355.657 79.4565C356.106 80.1043 356.812 80.7196 357.775 81.3026C358.739 81.8531 359.991 82.5009 361.531 83.2457C363.233 84.023 364.678 84.8489 365.865 85.7233C367.085 86.5977 368 87.6503 368.61 88.881C369.252 90.1116 369.573 91.6338 369.573 93.4474Z" fill="white"/>
<path d="M397.186 76.5903V102.92H392.274L391.456 99.5199H391.118C390.605 100.427 389.947 101.172 389.144 101.755C388.342 102.305 387.459 102.71 386.496 102.969C385.533 103.261 384.537 103.406 383.51 103.406C381.712 103.406 380.155 103.066 378.839 102.386C377.523 101.706 376.495 100.67 375.757 99.277C375.051 97.852 374.698 96.0222 374.698 93.7875V76.5903H381.102V92.573C381.102 94.5162 381.423 95.9898 382.065 96.9938C382.74 97.9653 383.799 98.4511 385.244 98.4511C386.688 98.4511 387.812 98.1111 388.614 97.431C389.449 96.7185 390.027 95.6983 390.348 94.3705C390.669 93.0426 390.83 91.4071 390.83 89.4639V76.5903H397.186Z" fill="white"/>
<path d="M421.378 95.2935C421.378 97.0423 420.992 98.5321 420.222 99.7628C419.452 100.961 418.312 101.868 416.803 102.483C415.294 103.099 413.4 103.406 411.121 103.406C409.387 103.406 407.878 103.277 406.594 103.018C405.31 102.759 404.074 102.354 402.886 101.803V96.6051C404.17 97.2205 405.551 97.7386 407.028 98.1597C408.536 98.5807 409.901 98.7912 411.121 98.7912C412.565 98.7912 413.609 98.5321 414.251 98.0139C414.893 97.4957 415.214 96.7994 415.214 95.925C415.214 95.4068 415.069 94.9372 414.781 94.5162C414.524 94.0952 413.978 93.658 413.143 93.2045C412.341 92.7187 411.169 92.1196 409.628 91.4071C408.119 90.727 406.867 90.0469 405.872 89.3668C404.877 88.6866 404.122 87.877 403.609 86.9378C403.095 85.9662 402.838 84.7517 402.838 83.2943C402.838 80.9301 403.721 79.1489 405.487 77.9506C407.284 76.7199 409.628 76.1045 412.517 76.1045C414.09 76.1045 415.551 76.2665 416.899 76.5903C418.28 76.8818 419.66 77.3676 421.041 78.0477L419.163 82.5656C418.392 82.2094 417.606 81.9017 416.803 81.6426C416.033 81.3511 415.278 81.1244 414.54 80.9625C413.833 80.8006 413.127 80.7196 412.421 80.7196C411.297 80.7196 410.447 80.9301 409.869 81.3511C409.291 81.7398 409.002 82.3065 409.002 83.0514C409.002 83.5696 409.146 84.0392 409.435 84.4602C409.724 84.8489 410.27 85.2537 411.073 85.6747C411.875 86.0957 413.015 86.6301 414.492 87.2778C415.968 87.8608 417.22 88.4923 418.248 89.1724C419.275 89.8202 420.045 90.6298 420.559 91.6014C421.105 92.573 421.378 93.8037 421.378 95.2935Z" fill="white"/>
<path d="M436.921 98.4997C437.627 98.4997 438.301 98.4349 438.943 98.3054C439.617 98.1435 440.243 97.9653 440.821 97.771V102.338C440.147 102.629 439.329 102.872 438.365 103.066C437.402 103.293 436.327 103.406 435.139 103.406C433.662 103.406 432.346 103.163 431.19 102.678C430.035 102.159 429.12 101.285 428.446 100.054C427.804 98.8236 427.482 97.1071 427.482 94.9048V81.2054H424.208V78.5335L427.868 76.396L429.794 70.8094H433.839V76.5903H440.581V81.2054H433.839V94.8563C433.839 96.0869 434.112 97.0099 434.658 97.6253C435.235 98.2082 435.99 98.4997 436.921 98.4997Z" fill="white"/>
<path d="M456.019 76.1045C459.165 76.1045 461.573 76.8494 463.242 78.3392C464.912 79.7966 465.746 82.096 465.746 85.2375V102.92H461.268L460.016 99.277H459.823C459.117 100.216 458.395 101.01 457.656 101.657C456.918 102.273 456.067 102.71 455.104 102.969C454.141 103.261 452.985 103.406 451.637 103.406C450.192 103.406 448.892 103.115 447.736 102.532C446.581 101.949 445.666 101.058 444.992 99.8599C444.317 98.6293 443.98 97.0909 443.98 95.2449C443.98 92.5244 444.911 90.4841 446.773 89.1239C448.635 87.7312 451.428 86.9702 455.152 86.8406L459.342 86.6949V85.3832C459.342 83.6991 458.989 82.5009 458.282 81.7884C457.576 81.0759 456.613 80.7196 455.393 80.7196C454.237 80.7196 453.066 80.9139 451.878 81.3026C450.722 81.6912 449.582 82.1446 448.459 82.6628L446.484 78.3878C447.801 77.7077 449.261 77.1571 450.867 76.7361C452.472 76.3151 454.189 76.1045 456.019 76.1045ZM456.645 90.5813C454.366 90.6784 452.777 91.148 451.878 91.9901C450.979 92.7997 450.529 93.9009 450.529 95.2935C450.529 96.5241 450.834 97.4148 451.444 97.9653C452.086 98.5159 452.921 98.7912 453.948 98.7912C455.457 98.7912 456.741 98.2892 457.801 97.2852C458.86 96.2489 459.39 94.7267 459.39 92.7188V90.4841L456.645 90.5813Z" fill="white"/>
<path d="M478.92 76.5903V102.92H472.564V76.5903H478.92ZM475.79 66.4372C476.721 66.4372 477.524 66.6801 478.198 67.1659C478.872 67.6193 479.209 68.4452 479.209 69.6435C479.209 70.8094 478.872 71.6514 478.198 72.1696C477.524 72.6554 476.721 72.8983 475.79 72.8983C474.795 72.8983 473.96 72.6554 473.286 72.1696C472.612 71.6514 472.275 70.8094 472.275 69.6435C472.275 68.4452 472.612 67.6193 473.286 67.1659C473.96 66.6801 474.795 66.4372 475.79 66.4372Z" fill="white"/>
<path d="M499.595 76.1045C502.324 76.1045 504.475 76.8656 506.048 78.3878C507.621 79.9099 508.407 82.3713 508.407 85.7719V102.92H502.003V86.9864C502.003 85.0108 501.666 83.5372 500.992 82.5656C500.317 81.5617 499.258 81.0597 497.813 81.0597C495.662 81.0597 494.202 81.8369 493.431 83.3915C492.661 84.9136 492.275 87.1321 492.275 90.0469V102.92H485.871V76.5903H490.783L491.698 80.0395H491.938C492.516 79.1327 493.19 78.3878 493.961 77.8048C494.731 77.2219 495.598 76.8009 496.561 76.5418C497.524 76.2503 498.536 76.1045 499.595 76.1045Z" fill="white"/>
<path d="M525.665 76.1045C528.811 76.1045 531.219 76.8494 532.888 78.3392C534.557 79.7966 535.392 82.096 535.392 85.2375V102.92H530.914L529.662 99.277H529.469C528.763 100.216 528.04 101.01 527.302 101.657C526.564 102.273 525.713 102.71 524.75 102.969C523.787 103.261 522.631 103.406 521.283 103.406C519.838 103.406 518.538 103.115 517.382 102.532C516.226 101.949 515.311 101.058 514.637 99.8599C513.963 98.6293 513.626 97.0909 513.626 95.2449C513.626 92.5244 514.557 90.4841 516.419 89.1239C518.281 87.7312 521.074 86.9702 524.798 86.8406L528.987 86.6949V85.3832C528.987 83.6991 528.634 82.5009 527.928 81.7884C527.222 81.0759 526.259 80.7196 525.039 80.7196C523.883 80.7196 522.711 80.9139 521.523 81.3026C520.368 81.6912 519.228 82.1446 518.104 82.6628L516.13 78.3878C517.446 77.7077 518.907 77.1571 520.512 76.7361C522.117 76.3151 523.835 76.1045 525.665 76.1045ZM526.291 90.5813C524.012 90.6784 522.422 91.148 521.523 91.9901C520.625 92.7997 520.175 93.9009 520.175 95.2935C520.175 96.5241 520.48 97.4148 521.09 97.9653C521.732 98.5159 522.567 98.7912 523.594 98.7912C525.103 98.7912 526.387 98.2892 527.447 97.2852C528.506 96.2489 529.036 94.7267 529.036 92.7188V90.4841L526.291 90.5813Z" fill="white"/>
<path d="M548.518 74.7443C548.518 75.7807 548.486 76.7847 548.421 77.7562C548.389 78.7278 548.341 79.4889 548.277 80.0395H548.518C549.192 78.9384 550.091 78.0153 551.214 77.2705C552.338 76.4932 553.815 76.1045 555.645 76.1045C558.405 76.1045 560.653 77.2543 562.386 79.5537C564.152 81.8531 565.035 85.2375 565.035 89.7068C565.035 92.7187 564.633 95.2449 563.831 97.2852C563.06 99.3256 561.953 100.864 560.508 101.9C559.064 102.904 557.378 103.406 555.452 103.406C553.654 103.406 552.209 103.05 551.118 102.338C550.059 101.625 549.192 100.799 548.518 99.8599H548.084L547.025 102.92H542.161V66H548.518V74.7443ZM553.622 81.0597C552.402 81.0597 551.423 81.3511 550.685 81.9341C549.946 82.517 549.4 83.4077 549.047 84.606C548.726 85.8043 548.566 87.3264 548.566 89.1724V89.7068C548.566 92.5244 548.935 94.6781 549.673 96.1679C550.412 97.6577 551.776 98.4026 553.767 98.4026C555.307 98.4026 556.479 97.6577 557.282 96.1679C558.116 94.6457 558.534 92.4759 558.534 89.6582C558.534 86.8082 558.116 84.6707 557.282 83.2457C556.479 81.7884 555.259 81.0597 553.622 81.0597Z" fill="white"/>
<path d="M577.064 102.92H570.659V66H577.064V102.92Z" fill="white"/>
<path d="M594.271 76.1045C596.519 76.1045 598.445 76.5903 600.05 77.5619C601.687 78.5011 602.955 79.8614 603.854 81.6426C604.753 83.3915 605.203 85.529 605.203 88.0551V91.1642H589.215C589.279 93.5608 589.857 95.423 590.949 96.7509C592.072 98.0463 593.645 98.694 595.668 98.694C597.273 98.694 598.702 98.5321 599.954 98.2082C601.206 97.852 602.506 97.35 603.854 96.7023V101.609C602.634 102.224 601.366 102.678 600.05 102.969C598.734 103.261 597.113 103.406 595.186 103.406C592.747 103.406 590.58 102.92 588.685 101.949C586.824 100.945 585.363 99.4389 584.303 97.431C583.244 95.423 582.714 92.9293 582.714 89.9497C582.714 86.9378 583.196 84.4116 584.159 82.3713C585.122 80.2986 586.47 78.744 588.204 77.7077C589.97 76.6389 591.992 76.1045 594.271 76.1045ZM594.368 80.6224C592.923 80.6224 591.751 81.1568 590.852 82.2256C589.986 83.2619 589.472 84.8165 589.312 86.8892H599.135C599.135 85.6585 598.959 84.5736 598.605 83.6344C598.252 82.6952 597.723 81.9665 597.016 81.4483C596.342 80.8977 595.459 80.6224 594.368 80.6224Z" fill="white"/>
<path d="M641.552 102.92H623.013V68.2347H641.552V73.4327H629.465V82.2741H640.782V87.4722H629.465V97.6739H641.552V102.92Z" fill="white"/>
<path d="M657.995 103.406C655.588 103.406 653.501 102.937 651.735 101.997C650.002 101.026 648.653 99.5523 647.69 97.5767C646.759 95.5688 646.294 93.0102 646.294 89.9011C646.294 86.6625 646.807 84.0392 647.835 82.0312C648.894 79.9909 650.339 78.5011 652.169 77.5619C654.031 76.5903 656.133 76.1045 658.477 76.1045C659.954 76.1045 661.334 76.2665 662.618 76.5903C663.934 76.9142 665.026 77.3028 665.893 77.7562L663.966 82.4685C663.1 82.1122 662.233 81.8045 661.366 81.5455C660.499 81.2864 659.633 81.1568 658.766 81.1568C657.45 81.1568 656.358 81.4807 655.491 82.1284C654.624 82.7761 653.95 83.7477 653.469 85.0432C653.019 86.3063 652.795 87.9094 652.795 89.8526C652.795 91.731 653.019 93.3017 653.469 94.5648C653.95 95.8278 654.624 96.7832 655.491 97.431C656.358 98.0463 657.417 98.354 658.669 98.354C659.921 98.354 661.077 98.1759 662.137 97.8196C663.228 97.4634 664.255 96.9776 665.219 96.3622V101.657C664.223 102.273 663.164 102.71 662.04 102.969C660.917 103.261 659.568 103.406 657.995 103.406Z" fill="white"/>
<path d="M693.171 89.7068C693.171 91.9091 692.898 93.8523 692.352 95.5364C691.806 97.2205 691.004 98.6617 689.944 99.8599C688.917 101.026 687.665 101.916 686.188 102.532C684.712 103.115 683.058 103.406 681.228 103.406C679.527 103.406 677.938 103.115 676.461 102.532C675.016 101.916 673.764 101.026 672.705 99.8599C671.678 98.6617 670.875 97.2205 670.297 95.5364C669.719 93.8523 669.431 91.9091 669.431 89.7068C669.431 86.792 669.896 84.3307 670.827 82.3227C671.79 80.2824 673.171 78.744 674.968 77.7077C676.766 76.6389 678.901 76.1045 681.373 76.1045C683.684 76.1045 685.723 76.6389 687.489 77.7077C689.254 78.744 690.635 80.2824 691.63 82.3227C692.657 84.3307 693.171 86.792 693.171 89.7068ZM675.931 89.7068C675.931 91.5528 676.124 93.1398 676.509 94.4676C676.895 95.7631 677.472 96.7509 678.243 97.431C679.045 98.1111 680.073 98.4511 681.325 98.4511C682.577 98.4511 683.588 98.1111 684.359 97.431C685.161 96.7509 685.739 95.7631 686.092 94.4676C686.477 93.1398 686.67 91.5528 686.67 89.7068C686.67 87.8284 686.477 86.2577 686.092 84.9946C685.707 83.6992 685.113 82.7276 684.31 82.0798C683.54 81.3997 682.529 81.0597 681.277 81.0597C679.383 81.0597 678.018 81.8045 677.183 83.2943C676.349 84.7841 675.931 86.9216 675.931 89.7068Z" fill="white"/>
<path d="M712.482 76.1045C715.211 76.1045 717.362 76.8656 718.935 78.3878C720.508 79.9099 721.295 82.3713 721.295 85.7719V102.92H714.89V86.9864C714.89 85.0108 714.553 83.5372 713.879 82.5656C713.205 81.5617 712.145 81.0597 710.701 81.0597C708.55 81.0597 707.089 81.8369 706.319 83.3915C705.548 84.9136 705.163 87.1321 705.163 90.0469V102.92H698.758V76.5903H703.67L704.585 80.0395H704.826C705.404 79.1327 706.078 78.3878 706.848 77.8048C707.619 77.2219 708.486 76.8009 709.449 76.5418C710.412 76.2503 711.423 76.1045 712.482 76.1045Z" fill="white"/>
<path d="M750.543 89.7068C750.543 91.9091 750.27 93.8523 749.724 95.5364C749.178 97.2205 748.376 98.6617 747.316 99.8599C746.289 101.026 745.037 101.916 743.56 102.532C742.084 103.115 740.43 103.406 738.6 103.406C736.899 103.406 735.31 103.115 733.833 102.532C732.388 101.916 731.136 101.026 730.077 99.8599C729.05 98.6617 728.247 97.2205 727.669 95.5364C727.091 93.8523 726.802 91.9091 726.802 89.7068C726.802 86.792 727.268 84.3307 728.199 82.3227C729.162 80.2824 730.542 78.744 732.34 77.7077C734.138 76.6389 736.273 76.1045 738.745 76.1045C741.056 76.1045 743.095 76.6389 744.86 77.7077C746.626 78.744 748.007 80.2824 749.002 82.3227C750.029 84.3307 750.543 86.792 750.543 89.7068ZM733.303 89.7068C733.303 91.5528 733.496 93.1398 733.881 94.4676C734.266 95.7631 734.844 96.7509 735.615 97.431C736.417 98.1111 737.445 98.4511 738.697 98.4511C739.949 98.4511 740.96 98.1111 741.73 97.431C742.533 96.7509 743.111 95.7631 743.464 94.4676C743.849 93.1398 744.042 91.5528 744.042 89.7068C744.042 87.8284 743.849 86.2577 743.464 84.9946C743.079 83.6992 742.485 82.7276 741.682 82.0798C740.912 81.3997 739.901 81.0597 738.648 81.0597C736.754 81.0597 735.39 81.8045 734.555 83.2943C733.721 84.7841 733.303 86.9216 733.303 89.7068Z" fill="white"/>
<path d="M784.782 76.1045C787.607 76.1045 789.726 76.8656 791.139 78.3878C792.551 79.9099 793.258 82.3713 793.258 85.7719V102.92H786.949V86.9378C786.949 84.9946 786.628 83.5372 785.986 82.5656C785.344 81.5617 784.349 81.0597 783.001 81.0597C781.139 81.0597 779.822 81.756 779.052 83.1486C778.281 84.5412 777.896 86.5653 777.896 89.221V102.92H771.54V86.9378C771.54 85.6423 771.395 84.5574 771.106 83.683C770.817 82.8085 770.384 82.1608 769.806 81.7398C769.228 81.2864 768.49 81.0597 767.591 81.0597C766.307 81.0597 765.296 81.4159 764.557 82.1284C763.819 82.8085 763.289 83.8125 762.968 85.1403C762.679 86.4682 762.535 88.1037 762.535 90.0469V102.92H756.13V76.5903H761.042L761.957 80.0395H762.246C762.727 79.1327 763.321 78.3878 764.028 77.8048C764.766 77.2219 765.601 76.8009 766.532 76.5418C767.495 76.2503 768.49 76.1045 769.517 76.1045C771.347 76.1045 772.872 76.4446 774.092 77.1247C775.344 77.7724 776.307 78.7926 776.981 80.1852H777.318C778.121 78.7602 779.18 77.7239 780.497 77.0761C781.845 76.4284 783.273 76.1045 784.782 76.1045Z" fill="white"/>
<path d="M806.504 76.5903V102.92H800.148V76.5903H806.504ZM803.374 66.4372C804.305 66.4372 805.108 66.6801 805.782 67.1659C806.456 67.6193 806.793 68.4452 806.793 69.6435C806.793 70.8094 806.456 71.6514 805.782 72.1696C805.108 72.6554 804.305 72.8983 803.374 72.8983C802.379 72.8983 801.544 72.6554 800.87 72.1696C800.196 71.6514 799.859 70.8094 799.859 69.6435C799.859 68.4452 800.196 67.6193 800.87 67.1659C801.544 66.6801 802.379 66.4372 803.374 66.4372Z" fill="white"/>
<path d="M823.857 103.406C821.449 103.406 819.362 102.937 817.596 101.997C815.863 101.026 814.514 99.5523 813.551 97.5767C812.62 95.5688 812.155 93.0102 812.155 89.9011C812.155 86.6625 812.669 84.0392 813.696 82.0312C814.755 79.9909 816.2 78.5011 818.03 77.5619C819.892 76.5903 821.995 76.1045 824.338 76.1045C825.815 76.1045 827.195 76.2665 828.479 76.5903C829.796 76.9142 830.887 77.3028 831.754 77.7562L829.828 82.4685C828.961 82.1122 828.094 81.8045 827.227 81.5455C826.361 81.2864 825.494 81.1568 824.627 81.1568C823.311 81.1568 822.219 81.4807 821.352 82.1284C820.486 82.7761 819.812 83.7477 819.33 85.0432C818.881 86.3063 818.656 87.9094 818.656 89.8526C818.656 91.731 818.881 93.3017 819.33 94.5648C819.812 95.8278 820.486 96.7832 821.352 97.431C822.219 98.0463 823.279 98.354 824.531 98.354C825.783 98.354 826.938 98.1759 827.998 97.8196C829.089 97.4634 830.117 96.9776 831.08 96.3622V101.657C830.085 102.273 829.025 102.71 827.902 102.969C826.778 103.261 825.43 103.406 823.857 103.406Z" fill="white"/>
<path d="M376.797 152.034C376.797 155.921 376.106 159.176 374.726 161.799C373.378 164.422 371.419 166.398 368.851 167.726C366.283 169.053 363.201 169.717 359.605 169.717H350.167V135.032H360.568C363.907 135.032 366.796 135.679 369.236 136.975C371.676 138.27 373.538 140.181 374.822 142.707C376.138 145.201 376.797 148.31 376.797 152.034ZM370.055 152.229C370.055 149.476 369.686 147.209 368.947 145.428C368.241 143.646 367.166 142.335 365.721 141.493C364.308 140.618 362.559 140.181 360.472 140.181H356.62V164.519H359.75C363.217 164.519 365.801 163.499 367.503 161.459C369.204 159.386 370.055 156.309 370.055 152.229Z" fill="white"/>
<path d="M393.141 142.901C395.388 142.901 397.314 143.387 398.919 144.359C400.556 145.298 401.824 146.658 402.723 148.439C403.622 150.188 404.072 152.326 404.072 154.852V157.961H388.084C388.149 160.358 388.726 162.22 389.818 163.548C390.942 164.843 392.515 165.491 394.537 165.491C396.142 165.491 397.571 165.329 398.823 165.005C400.075 164.649 401.375 164.147 402.723 163.499V168.406C401.503 169.021 400.235 169.474 398.919 169.766C397.603 170.057 395.982 170.203 394.056 170.203C391.616 170.203 389.449 169.717 387.555 168.746C385.693 167.742 384.232 166.236 383.173 164.228C382.113 162.22 381.583 159.726 381.583 156.747C381.583 153.735 382.065 151.209 383.028 149.168C383.991 147.095 385.34 145.541 387.073 144.505C388.839 143.436 390.861 142.901 393.141 142.901ZM393.237 147.419C391.792 147.419 390.621 147.954 389.722 149.022C388.855 150.059 388.341 151.613 388.181 153.686H398.004C398.004 152.455 397.828 151.37 397.475 150.431C397.121 149.492 396.592 148.763 395.885 148.245C395.211 147.695 394.328 147.419 393.237 147.419Z" fill="white"/>
<path d="M414.577 169.717L405.187 143.387H411.88L416.551 158.593C416.776 159.208 416.953 159.888 417.081 160.633C417.242 161.345 417.386 162.058 417.514 162.77C417.643 163.451 417.707 164.05 417.707 164.568H417.9C417.964 164.017 418.044 163.402 418.14 162.722C418.269 162.009 418.429 161.297 418.622 160.584C418.815 159.872 418.991 159.208 419.152 158.593L423.871 143.387H430.564L421.174 169.717H414.577Z" fill="white"/>
<path d="M444.305 142.901C446.552 142.901 448.478 143.387 450.084 144.359C451.721 145.298 452.989 146.658 453.888 148.439C454.787 150.188 455.236 152.326 455.236 154.852V157.961H439.249C439.313 160.358 439.891 162.22 440.982 163.548C442.106 164.843 443.679 165.491 445.702 165.491C447.307 165.491 448.735 165.329 449.987 165.005C451.239 164.649 452.54 164.147 453.888 163.499V168.406C452.668 169.021 451.4 169.474 450.084 169.766C448.767 170.057 447.146 170.203 445.22 170.203C442.78 170.203 440.613 169.717 438.719 168.746C436.857 167.742 435.396 166.236 434.337 164.228C433.278 162.22 432.748 159.726 432.748 156.747C432.748 153.735 433.229 151.209 434.193 149.168C435.156 147.095 436.504 145.541 438.238 144.505C440.003 143.436 442.026 142.901 444.305 142.901ZM444.401 147.419C442.957 147.419 441.785 147.954 440.886 149.022C440.019 150.059 439.506 151.613 439.345 153.686H449.169C449.169 152.455 448.992 151.37 448.639 150.431C448.286 149.492 447.756 148.763 447.05 148.245C446.376 147.695 445.493 147.419 444.401 147.419Z" fill="white"/>
<path d="M467.117 169.717H460.712V132.797H467.117V169.717Z" fill="white"/>
<path d="M496.507 156.504C496.507 158.706 496.235 160.649 495.689 162.333C495.143 164.017 494.341 165.459 493.281 166.657C492.254 167.823 491.002 168.713 489.525 169.329C488.048 169.912 486.395 170.203 484.565 170.203C482.864 170.203 481.275 169.912 479.798 169.329C478.353 168.713 477.101 167.823 476.042 166.657C475.014 165.459 474.212 164.017 473.634 162.333C473.056 160.649 472.767 158.706 472.767 156.504C472.767 153.589 473.233 151.128 474.164 149.12C475.127 147.079 476.507 145.541 478.305 144.505C480.103 143.436 482.238 142.901 484.71 142.901C487.021 142.901 489.06 143.436 490.825 144.505C492.591 145.541 493.971 147.079 494.967 149.12C495.994 151.128 496.507 153.589 496.507 156.504ZM479.268 156.504C479.268 158.35 479.461 159.937 479.846 161.264C480.231 162.56 480.809 163.548 481.579 164.228C482.382 164.908 483.409 165.248 484.661 165.248C485.913 165.248 486.925 164.908 487.695 164.228C488.498 163.548 489.076 162.56 489.429 161.264C489.814 159.937 490.007 158.35 490.007 156.504C490.007 154.625 489.814 153.055 489.429 151.791C489.043 150.496 488.45 149.524 487.647 148.877C486.876 148.197 485.865 147.857 484.613 147.857C482.719 147.857 481.355 148.601 480.52 150.091C479.685 151.581 479.268 153.718 479.268 156.504Z" fill="white"/>
<path d="M515.578 142.901C518.403 142.901 520.667 144.051 522.368 146.351C524.102 148.618 524.968 152.002 524.968 156.504C524.968 159.483 524.567 161.993 523.765 164.034C522.962 166.074 521.838 167.612 520.394 168.649C518.949 169.685 517.28 170.203 515.386 170.203C514.198 170.203 513.154 170.041 512.256 169.717C511.389 169.361 510.65 168.924 510.04 168.406C509.431 167.855 508.917 167.272 508.5 166.657H508.162C508.259 167.24 508.339 167.904 508.403 168.649C508.467 169.361 508.5 170.041 508.5 170.689V181.376H502.095V143.387H507.296L508.162 146.885H508.5C508.949 146.14 509.479 145.476 510.089 144.893C510.731 144.278 511.501 143.792 512.4 143.436C513.299 143.08 514.358 142.901 515.578 142.901ZM513.556 147.857C512.336 147.857 511.341 148.148 510.57 148.731C509.832 149.282 509.302 150.14 508.981 151.306C508.66 152.472 508.5 153.929 508.5 155.678V156.455C508.5 158.334 508.644 159.92 508.933 161.216C509.254 162.511 509.784 163.499 510.522 164.179C511.292 164.859 512.336 165.199 513.652 165.199C514.744 165.199 515.642 164.843 516.349 164.131C517.055 163.418 517.585 162.414 517.938 161.119C518.291 159.791 518.468 158.22 518.468 156.407C518.468 153.686 518.05 151.581 517.216 150.091C516.413 148.601 515.193 147.857 513.556 147.857Z" fill="white"/>
<path d="M559.245 142.901C562.07 142.901 564.189 143.663 565.601 145.185C567.014 146.707 567.72 149.168 567.72 152.569V169.717H561.412V153.735C561.412 151.791 561.091 150.334 560.449 149.363C559.807 148.359 558.811 147.857 557.463 147.857C555.601 147.857 554.285 148.553 553.514 149.945C552.744 151.338 552.359 153.362 552.359 156.018V169.717H546.002V153.735C546.002 152.439 545.858 151.354 545.569 150.48C545.28 149.605 544.847 148.958 544.269 148.537C543.691 148.083 542.952 147.857 542.054 147.857C540.769 147.857 539.758 148.213 539.02 148.925C538.281 149.605 537.752 150.609 537.431 151.937C537.142 153.265 536.997 154.901 536.997 156.844V169.717H530.593V143.387H535.505L536.419 146.836H536.708C537.19 145.93 537.784 145.185 538.49 144.602C539.229 144.019 540.063 143.598 540.994 143.339C541.957 143.047 542.952 142.901 543.98 142.901C545.81 142.901 547.335 143.241 548.555 143.922C549.807 144.569 550.77 145.589 551.444 146.982H551.781C552.583 145.557 553.643 144.521 554.959 143.873C556.307 143.225 557.736 142.901 559.245 142.901Z" fill="white"/>
<path d="M584.819 142.901C587.066 142.901 588.993 143.387 590.598 144.359C592.235 145.298 593.503 146.658 594.402 148.439C595.301 150.188 595.75 152.326 595.75 154.852V157.961H579.763C579.827 160.358 580.405 162.22 581.497 163.548C582.62 164.843 584.193 165.491 586.216 165.491C587.821 165.491 589.249 165.329 590.501 165.005C591.753 164.649 593.054 164.147 594.402 163.499V168.406C593.182 169.021 591.914 169.474 590.598 169.766C589.282 170.057 587.66 170.203 585.734 170.203C583.294 170.203 581.127 169.717 579.233 168.746C577.371 167.742 575.911 166.236 574.851 164.228C573.792 162.22 573.262 159.726 573.262 156.747C573.262 153.735 573.744 151.209 574.707 149.168C575.67 147.095 577.018 145.541 578.752 144.505C580.517 143.436 582.54 142.901 584.819 142.901ZM584.916 147.419C583.471 147.419 582.299 147.954 581.4 149.022C580.533 150.059 580.02 151.613 579.859 153.686H589.683C589.683 152.455 589.506 151.37 589.153 150.431C588.8 149.492 588.27 148.763 587.564 148.245C586.89 147.695 586.007 147.419 584.916 147.419Z" fill="white"/>
<path d="M614.95 142.901C617.679 142.901 619.83 143.663 621.403 145.185C622.976 146.707 623.763 149.168 623.763 152.569V169.717H617.358V153.783C617.358 151.808 617.021 150.334 616.347 149.363C615.673 148.359 614.613 147.857 613.168 147.857C611.018 147.857 609.557 148.634 608.786 150.188C608.016 151.711 607.631 153.929 607.631 156.844V169.717H601.226V143.387H606.138L607.053 146.836H607.294C607.871 145.93 608.546 145.185 609.316 144.602C610.087 144.019 610.953 143.598 611.916 143.339C612.88 143.047 613.891 142.901 614.95 142.901Z" fill="white"/>
<path d="M640.779 165.297C641.485 165.297 642.16 165.232 642.802 165.102C643.476 164.94 644.102 164.762 644.68 164.568V169.134C644.006 169.426 643.187 169.669 642.224 169.863C641.261 170.09 640.185 170.203 638.997 170.203C637.521 170.203 636.204 169.96 635.049 169.474C633.893 168.956 632.978 168.082 632.304 166.851C631.662 165.62 631.341 163.904 631.341 161.702V148.002H628.066V145.33L631.726 143.193L633.652 137.606H637.697V143.387H644.439V148.002H637.697V161.653C637.697 162.884 637.97 163.807 638.516 164.422C639.094 165.005 639.848 165.297 640.779 165.297Z" fill="white"/>
<path d="M655.977 164.616C655.72 165.75 655.367 166.981 654.917 168.309C654.5 169.604 654.051 170.899 653.569 172.195C653.088 173.523 652.59 174.786 652.076 175.984H647.502C647.791 174.721 648.08 173.377 648.368 171.952C648.657 170.559 648.914 169.183 649.139 167.823C649.396 166.462 649.588 165.216 649.717 164.082H655.64L655.977 164.616Z" fill="white"/>
<path d="M682.109 160.244C682.109 162.285 681.644 164.05 680.713 165.539C679.814 167.029 678.465 168.179 676.668 168.989C674.902 169.798 672.719 170.203 670.119 170.203C668.834 170.203 667.647 170.122 666.555 169.96C665.464 169.831 664.436 169.62 663.473 169.329C662.542 169.037 661.643 168.681 660.777 168.26V162.43C662.221 163.078 663.778 163.677 665.448 164.228C667.149 164.746 668.802 165.005 670.408 165.005C671.627 165.005 672.623 164.827 673.393 164.471C674.164 164.082 674.725 163.564 675.079 162.916C675.464 162.236 675.656 161.459 675.656 160.584C675.656 159.613 675.416 158.787 674.934 158.107C674.485 157.427 673.778 156.795 672.815 156.212C671.852 155.629 670.6 155.03 669.059 154.415C667.968 153.929 666.924 153.411 665.929 152.86C664.966 152.277 664.115 151.581 663.377 150.771C662.671 149.962 662.109 149.006 661.692 147.905C661.306 146.804 661.114 145.509 661.114 144.019C661.114 142.043 661.579 140.343 662.51 138.918C663.441 137.493 664.741 136.408 666.411 135.663C668.08 134.918 670.022 134.546 672.237 134.546C674.099 134.546 675.801 134.74 677.342 135.129C678.915 135.517 680.392 136.068 681.772 136.78L679.75 141.784C678.433 141.169 677.133 140.683 675.849 140.327C674.597 139.97 673.329 139.792 672.045 139.792C671.05 139.792 670.215 139.97 669.541 140.327C668.867 140.651 668.353 141.12 668 141.736C667.679 142.351 667.518 143.063 667.518 143.873C667.518 144.812 667.743 145.606 668.192 146.253C668.642 146.901 669.348 147.516 670.311 148.099C671.274 148.65 672.526 149.298 674.067 150.043C675.769 150.82 677.213 151.646 678.401 152.52C679.621 153.395 680.536 154.447 681.146 155.678C681.788 156.909 682.109 158.431 682.109 160.244Z" fill="white"/>
<path d="M697.779 170.203C695.372 170.203 693.285 169.734 691.519 168.794C689.786 167.823 688.437 166.349 687.474 164.374C686.543 162.366 686.078 159.807 686.078 156.698C686.078 153.459 686.591 150.836 687.619 148.828C688.678 146.788 690.123 145.298 691.953 144.359C693.815 143.387 695.917 142.901 698.261 142.901C699.738 142.901 701.118 143.063 702.402 143.387C703.718 143.711 704.81 144.1 705.677 144.553L703.751 149.265C702.884 148.909 702.017 148.601 701.15 148.342C700.283 148.083 699.417 147.954 698.55 147.954C697.234 147.954 696.142 148.278 695.275 148.925C694.409 149.573 693.734 150.545 693.253 151.84C692.803 153.103 692.579 154.706 692.579 156.649C692.579 158.528 692.803 160.099 693.253 161.362C693.734 162.625 694.409 163.58 695.275 164.228C696.142 164.843 697.202 165.151 698.454 165.151C699.706 165.151 700.861 164.973 701.921 164.616C703.012 164.26 704.04 163.774 705.003 163.159V168.454C704.007 169.07 702.948 169.507 701.824 169.766C700.701 170.057 699.352 170.203 697.779 170.203Z" fill="white"/>
<path d="M716.919 143.387V169.717H710.563V143.387H716.919ZM713.789 133.234C714.72 133.234 715.523 133.477 716.197 133.963C716.871 134.416 717.208 135.242 717.208 136.44C717.208 137.606 716.871 138.448 716.197 138.966C715.523 139.452 714.72 139.695 713.789 139.695C712.794 139.695 711.959 139.452 711.285 138.966C710.611 138.448 710.274 137.606 710.274 136.44C710.274 135.242 710.611 134.416 711.285 133.963C711.959 133.477 712.794 133.234 713.789 133.234Z" fill="white"/>
<path d="M734.127 142.901C736.374 142.901 738.301 143.387 739.906 144.359C741.543 145.298 742.811 146.658 743.71 148.439C744.609 150.188 745.058 152.326 745.058 154.852V157.961H729.071C729.135 160.358 729.713 162.22 730.805 163.548C731.928 164.843 733.501 165.491 735.524 165.491C737.129 165.491 738.557 165.329 739.81 165.005C741.062 164.649 742.362 164.147 743.71 163.499V168.406C742.49 169.021 741.222 169.474 739.906 169.766C738.59 170.057 736.968 170.203 735.042 170.203C732.602 170.203 730.435 169.717 728.541 168.746C726.679 167.742 725.219 166.236 724.159 164.228C723.1 162.22 722.57 159.726 722.57 156.747C722.57 153.735 723.052 151.209 724.015 149.168C724.978 147.095 726.326 145.541 728.06 144.505C729.825 143.436 731.848 142.901 734.127 142.901ZM734.224 147.419C732.779 147.419 731.607 147.954 730.708 149.022C729.841 150.059 729.328 151.613 729.167 153.686H738.991C738.991 152.455 738.814 151.37 738.461 150.431C738.108 149.492 737.578 148.763 736.872 148.245C736.198 147.695 735.315 147.419 734.224 147.419Z" fill="white"/>
<path d="M764.258 142.901C766.987 142.901 769.138 143.663 770.711 145.185C772.284 146.707 773.071 149.168 773.071 152.569V169.717H766.666V153.783C766.666 151.808 766.329 150.334 765.655 149.363C764.981 148.359 763.921 147.857 762.477 147.857C760.326 147.857 758.865 148.634 758.094 150.188C757.324 151.711 756.939 153.929 756.939 156.844V169.717H750.534V143.387H755.446L756.361 146.836H756.602C757.179 145.93 757.854 145.185 758.624 144.602C759.395 144.019 760.261 143.598 761.224 143.339C762.188 143.047 763.199 142.901 764.258 142.901Z" fill="white"/>
<path d="M790.28 170.203C787.872 170.203 785.785 169.734 784.02 168.794C782.286 167.823 780.938 166.349 779.975 164.374C779.044 162.366 778.578 159.807 778.578 156.698C778.578 153.459 779.092 150.836 780.119 148.828C781.179 146.788 782.623 145.298 784.453 144.359C786.315 143.387 788.418 142.901 790.761 142.901C792.238 142.901 793.619 143.063 794.903 143.387C796.219 143.711 797.31 144.1 798.177 144.553L796.251 149.265C795.384 148.909 794.517 148.601 793.651 148.342C792.784 148.083 791.917 147.954 791.05 147.954C789.734 147.954 788.643 148.278 787.776 148.925C786.909 149.573 786.235 150.545 785.753 151.84C785.304 153.103 785.079 154.706 785.079 156.649C785.079 158.528 785.304 160.099 785.753 161.362C786.235 162.625 786.909 163.58 787.776 164.228C788.643 164.843 789.702 165.151 790.954 165.151C792.206 165.151 793.362 164.973 794.421 164.616C795.513 164.26 796.54 163.774 797.503 163.159V168.454C796.508 169.07 795.448 169.507 794.325 169.766C793.201 170.057 791.853 170.203 790.28 170.203Z" fill="white"/>
<path d="M813.272 142.901C815.52 142.901 817.446 143.387 819.051 144.359C820.688 145.298 821.956 146.658 822.855 148.439C823.754 150.188 824.203 152.326 824.203 154.852V157.961H808.216C808.28 160.358 808.858 162.22 809.95 163.548C811.073 164.843 812.646 165.491 814.669 165.491C816.274 165.491 817.703 165.329 818.955 165.005C820.207 164.649 821.507 164.147 822.855 163.499V168.406C821.635 169.021 820.367 169.474 819.051 169.766C817.735 170.057 816.113 170.203 814.187 170.203C811.747 170.203 809.58 169.717 807.686 168.746C805.824 167.742 804.364 166.236 803.304 164.228C802.245 162.22 801.715 159.726 801.715 156.747C801.715 153.735 802.197 151.209 803.16 149.168C804.123 147.095 805.471 145.541 807.205 144.505C808.97 143.436 810.993 142.901 813.272 142.901ZM813.369 147.419C811.924 147.419 810.752 147.954 809.853 149.022C808.986 150.059 808.473 151.613 808.312 153.686H818.136C818.136 152.455 817.959 151.37 817.606 150.431C817.253 149.492 816.723 148.763 816.017 148.245C815.343 147.695 814.46 147.419 813.369 147.419Z" fill="white"/>
<path d="M360.039 209.698C363.185 209.698 365.593 210.443 367.262 211.933C368.931 213.39 369.766 215.69 369.766 218.831V236.514H365.288L364.036 232.871H363.843C363.137 233.81 362.414 234.603 361.676 235.251C360.938 235.866 360.087 236.304 359.124 236.563C358.161 236.854 357.005 237 355.657 237C354.212 237 352.912 236.709 351.756 236.126C350.6 235.543 349.685 234.652 349.011 233.454C348.337 232.223 348 230.685 348 228.839C348 226.118 348.931 224.078 350.793 222.718C352.655 221.325 355.448 220.564 359.172 220.434L363.361 220.289V218.977C363.361 217.293 363.008 216.095 362.302 215.382C361.596 214.67 360.633 214.313 359.413 214.313C358.257 214.313 357.085 214.508 355.897 214.896C354.742 215.285 353.602 215.738 352.478 216.257L350.504 211.982C351.82 211.301 353.281 210.751 354.886 210.33C356.491 209.909 358.209 209.698 360.039 209.698ZM360.665 224.175C358.385 224.272 356.796 224.742 355.897 225.584C354.998 226.393 354.549 227.495 354.549 228.887C354.549 230.118 354.854 231.009 355.464 231.559C356.106 232.11 356.941 232.385 357.968 232.385C359.477 232.385 360.761 231.883 361.82 230.879C362.88 229.843 363.41 228.32 363.41 226.312V224.078L360.665 224.175Z" fill="white"/>
<path d="M390.259 209.698C392.988 209.698 395.139 210.459 396.712 211.982C398.285 213.504 399.072 215.965 399.072 219.366V236.514H392.667V220.58C392.667 218.605 392.33 217.131 391.656 216.159C390.982 215.155 389.922 214.653 388.477 214.653C386.327 214.653 384.866 215.431 384.095 216.985C383.325 218.507 382.94 220.726 382.94 223.641V236.514H376.535V210.184H381.447L382.362 213.633H382.603C383.18 212.726 383.855 211.982 384.625 211.399C385.396 210.816 386.262 210.395 387.225 210.136C388.189 209.844 389.2 209.698 390.259 209.698Z" fill="white"/>
<path d="M413.969 237C411.176 237 408.913 235.866 407.18 233.599C405.446 231.3 404.579 227.899 404.579 223.398C404.579 218.896 405.462 215.495 407.228 213.196C408.993 210.864 411.305 209.698 414.162 209.698C415.35 209.698 416.377 209.876 417.244 210.233C418.143 210.557 418.913 211.01 419.555 211.593C420.197 212.176 420.759 212.824 421.241 213.536H421.433C421.369 213.083 421.289 212.386 421.193 211.447C421.096 210.508 421.048 209.634 421.048 208.824V199.594H427.453V236.514H422.541L421.337 233.065H421.048C420.631 233.778 420.101 234.441 419.459 235.057C418.817 235.64 418.047 236.109 417.148 236.466C416.249 236.822 415.189 237 413.969 237ZM416.088 232.045C418.047 232.045 419.427 231.397 420.23 230.102C421.032 228.806 421.433 226.847 421.433 224.224V223.446C421.433 220.596 421.048 218.426 420.278 216.937C419.507 215.447 418.095 214.702 416.04 214.702C414.435 214.702 413.199 215.479 412.332 217.034C411.497 218.556 411.08 220.71 411.08 223.495C411.08 226.28 411.514 228.401 412.38 229.859C413.247 231.316 414.483 232.045 416.088 232.045Z" fill="white"/>
<path d="M458.558 236.514H444.256V232.968L448.204 231.413V206.978L444.256 205.375V201.828H458.558V205.375L454.657 206.978V231.413L458.558 232.968V236.514ZM451.479 191.675C452.41 191.675 453.213 191.918 453.887 192.404C454.593 192.857 454.946 193.683 454.946 194.882C454.946 196.047 454.593 196.889 453.887 197.408C453.213 197.893 452.41 198.136 451.479 198.136C450.516 198.136 449.681 197.893 448.975 197.408C448.301 196.889 447.964 196.047 447.964 194.882C447.964 193.683 448.301 192.857 448.975 192.404C449.681 191.918 450.516 191.675 451.479 191.675Z" fill="white"/>
<path d="M477.399 209.698C480.127 209.698 482.278 210.459 483.851 211.982C485.424 213.504 486.211 215.965 486.211 219.366V236.514H479.806V220.58C479.806 218.605 479.469 217.131 478.795 216.159C478.121 215.155 477.062 214.653 475.617 214.653C473.466 214.653 472.005 215.431 471.235 216.985C470.464 218.507 470.079 220.726 470.079 223.641V236.514H463.675V210.184H468.586L469.501 213.633H469.742C470.32 212.726 470.994 211.982 471.765 211.399C472.535 210.816 473.402 210.395 474.365 210.136C475.328 209.844 476.339 209.698 477.399 209.698Z" fill="white"/>
<path d="M506.743 209.698C509.472 209.698 511.623 210.459 513.196 211.982C514.769 213.504 515.555 215.965 515.555 219.366V236.514H509.151V220.58C509.151 218.605 508.814 217.131 508.139 216.159C507.465 215.155 506.406 214.653 504.961 214.653C502.81 214.653 501.35 215.431 500.579 216.985C499.809 218.507 499.423 220.726 499.423 223.641V236.514H493.019V210.184H497.931L498.846 213.633H499.086C499.664 212.726 500.338 211.982 501.109 211.399C501.879 210.816 502.746 210.395 503.709 210.136C504.672 209.844 505.684 209.698 506.743 209.698Z" fill="white"/>
<path d="M544.803 223.301C544.803 225.503 544.53 227.446 543.985 229.13C543.439 230.814 542.636 232.255 541.577 233.454C540.55 234.62 539.298 235.51 537.821 236.126C536.344 236.709 534.691 237 532.861 237C531.159 237 529.57 236.709 528.094 236.126C526.649 235.51 525.397 234.62 524.338 233.454C523.31 232.255 522.508 230.814 521.93 229.13C521.352 227.446 521.063 225.503 521.063 223.301C521.063 220.386 521.529 217.924 522.46 215.916C523.423 213.876 524.803 212.338 526.601 211.301C528.399 210.233 530.533 209.698 533.005 209.698C535.317 209.698 537.355 210.233 539.121 211.301C540.887 212.338 542.267 213.876 543.262 215.916C544.29 217.924 544.803 220.386 544.803 223.301ZM527.564 223.301C527.564 225.147 527.757 226.734 528.142 228.061C528.527 229.357 529.105 230.345 529.875 231.025C530.678 231.705 531.705 232.045 532.957 232.045C534.209 232.045 535.221 231.705 535.991 231.025C536.794 230.345 537.371 229.357 537.725 228.061C538.11 226.734 538.302 225.147 538.302 223.301C538.302 221.422 538.11 219.851 537.725 218.588C537.339 217.293 536.745 216.321 535.943 215.674C535.172 214.993 534.161 214.653 532.909 214.653C531.015 214.653 529.651 215.398 528.816 216.888C527.981 218.378 527.564 220.515 527.564 223.301Z" fill="white"/>
<path d="M555.42 236.514L546.03 210.184H552.724L557.395 225.389C557.619 226.005 557.796 226.685 557.924 227.43C558.085 228.142 558.229 228.855 558.358 229.567C558.486 230.247 558.55 230.847 558.55 231.365H558.743C558.807 230.814 558.887 230.199 558.984 229.519C559.112 228.806 559.273 228.094 559.465 227.381C559.658 226.669 559.835 226.005 559.995 225.389L564.714 210.184H571.408L562.018 236.514H555.42Z" fill="white"/>
<path d="M585.341 209.698C588.487 209.698 590.895 210.443 592.564 211.933C594.234 213.39 595.068 215.69 595.068 218.831V236.514H590.59L589.338 232.871H589.145C588.439 233.81 587.717 234.603 586.978 235.251C586.24 235.866 585.389 236.304 584.426 236.563C583.463 236.854 582.307 237 580.959 237C579.514 237 578.214 236.709 577.058 236.126C575.903 235.543 574.988 234.652 574.314 233.454C573.639 232.223 573.302 230.685 573.302 228.839C573.302 226.118 574.233 224.078 576.095 222.718C577.957 221.325 580.75 220.564 584.474 220.434L588.664 220.289V218.977C588.664 217.293 588.311 216.095 587.604 215.382C586.898 214.67 585.935 214.313 584.715 214.313C583.559 214.313 582.388 214.508 581.2 214.896C580.044 215.285 578.904 215.738 577.781 216.257L575.806 211.982C577.123 211.301 578.583 210.751 580.188 210.33C581.794 209.909 583.511 209.698 585.341 209.698ZM585.967 224.175C583.688 224.272 582.099 224.742 581.2 225.584C580.301 226.393 579.851 227.495 579.851 228.887C579.851 230.118 580.156 231.009 580.766 231.559C581.408 232.11 582.243 232.385 583.27 232.385C584.779 232.385 586.063 231.883 587.123 230.879C588.182 229.843 588.712 228.32 588.712 226.312V224.078L585.967 224.175Z" fill="white"/>
<path d="M612.046 232.093C612.752 232.093 613.427 232.029 614.069 231.899C614.743 231.737 615.369 231.559 615.947 231.365V235.931C615.273 236.223 614.454 236.466 613.491 236.66C612.528 236.887 611.452 237 610.264 237C608.788 237 607.472 236.757 606.316 236.271C605.16 235.753 604.245 234.879 603.571 233.648C602.929 232.417 602.608 230.701 602.608 228.499V214.799H599.333V212.127L602.993 209.99L604.919 204.403H608.964V210.184H615.706V214.799H608.964V228.45C608.964 229.681 609.237 230.604 609.783 231.219C610.361 231.802 611.115 232.093 612.046 232.093Z" fill="white"/>
<path d="M627.099 210.184V236.514H620.743V210.184H627.099ZM623.969 200.031C624.9 200.031 625.703 200.274 626.377 200.76C627.051 201.213 627.388 202.039 627.388 203.237C627.388 204.403 627.051 205.245 626.377 205.763C625.703 206.249 624.9 206.492 623.969 206.492C622.974 206.492 622.139 206.249 621.465 205.763C620.791 205.245 620.454 204.403 620.454 203.237C620.454 202.039 620.791 201.213 621.465 200.76C622.139 200.274 622.974 200.031 623.969 200.031Z" fill="white"/>
<path d="M656.49 223.301C656.49 225.503 656.218 227.446 655.672 229.13C655.126 230.814 654.324 232.255 653.264 233.454C652.237 234.62 650.985 235.51 649.508 236.126C648.031 236.709 646.378 237 644.548 237C642.847 237 641.257 236.709 639.781 236.126C638.336 235.51 637.084 234.62 636.025 233.454C634.997 232.255 634.195 230.814 633.617 229.13C633.039 227.446 632.75 225.503 632.75 223.301C632.75 220.386 633.216 217.924 634.147 215.916C635.11 213.876 636.49 212.338 638.288 211.301C640.086 210.233 642.221 209.698 644.693 209.698C647.004 209.698 649.042 210.233 650.808 211.301C652.574 212.338 653.954 213.876 654.949 215.916C655.977 217.924 656.49 220.386 656.49 223.301ZM639.251 223.301C639.251 225.147 639.444 226.734 639.829 228.061C640.214 229.357 640.792 230.345 641.562 231.025C642.365 231.705 643.392 232.045 644.644 232.045C645.896 232.045 646.908 231.705 647.678 231.025C648.481 230.345 649.059 229.357 649.412 228.061C649.797 226.734 649.99 225.147 649.99 223.301C649.99 221.422 649.797 219.851 649.412 218.588C649.026 217.293 648.433 216.321 647.63 215.674C646.859 214.993 645.848 214.653 644.596 214.653C642.702 214.653 641.338 215.398 640.503 216.888C639.668 218.378 639.251 220.515 639.251 223.301Z" fill="white"/>
<path d="M675.802 209.698C678.531 209.698 680.682 210.459 682.255 211.982C683.828 213.504 684.614 215.965 684.614 219.366V236.514H678.21V220.58C678.21 218.605 677.873 217.131 677.198 216.159C676.524 215.155 675.465 214.653 674.02 214.653C671.869 214.653 670.409 215.431 669.638 216.985C668.868 218.507 668.482 220.726 668.482 223.641V236.514H662.078V210.184H666.99L667.905 213.633H668.145C668.723 212.726 669.397 211.982 670.168 211.399C670.938 210.816 671.805 210.395 672.768 210.136C673.731 209.844 674.743 209.698 675.802 209.698Z" fill="white"/>
<path d="M713.677 201.828C717.85 201.828 720.916 202.768 722.874 204.646C724.832 206.524 725.812 209.115 725.812 212.419C725.812 213.909 725.603 215.334 725.185 216.694C724.768 218.022 724.062 219.22 723.067 220.289C722.104 221.357 720.819 222.199 719.214 222.815C717.609 223.43 715.635 223.738 713.291 223.738H710.209V236.514H703.757V201.828H713.677ZM713.436 206.978H710.209V218.588H712.617C714.03 218.588 715.233 218.394 716.229 218.005C717.224 217.584 717.978 216.937 718.492 216.062C719.038 215.188 719.311 214.054 719.311 212.662C719.311 210.751 718.829 209.326 717.866 208.387C716.903 207.447 715.426 206.978 713.436 206.978Z" fill="white"/>
<path d="M737.752 236.514H731.347V199.594H737.752V236.514Z" fill="white"/>
<path d="M755.152 209.698C758.299 209.698 760.706 210.443 762.376 211.933C764.045 213.39 764.88 215.69 764.88 218.831V236.514H760.401L759.149 232.871H758.957C758.25 233.81 757.528 234.603 756.79 235.251C756.051 235.866 755.201 236.304 754.237 236.563C753.274 236.854 752.119 237 750.77 237C749.326 237 748.026 236.709 746.87 236.126C745.714 235.543 744.799 234.652 744.125 233.454C743.451 232.223 743.114 230.685 743.114 228.839C743.114 226.118 744.045 224.078 745.907 222.718C747.769 221.325 750.562 220.564 754.286 220.434L758.475 220.289V218.977C758.475 217.293 758.122 216.095 757.416 215.382C756.709 214.67 755.746 214.313 754.526 214.313C753.371 214.313 752.199 214.508 751.011 214.896C749.855 215.285 748.716 215.738 747.592 216.257L745.618 211.982C746.934 211.301 748.395 210.751 750 210.33C751.605 209.909 753.323 209.698 755.152 209.698ZM755.779 224.175C753.499 224.272 751.91 224.742 751.011 225.584C750.112 226.393 749.663 227.495 749.663 228.887C749.663 230.118 749.968 231.009 750.578 231.559C751.22 232.11 752.054 232.385 753.082 232.385C754.591 232.385 755.875 231.883 756.934 230.879C757.994 229.843 758.523 228.32 758.523 226.312V224.078L755.779 224.175Z" fill="white"/>
<path d="M781.858 232.093C782.564 232.093 783.238 232.029 783.88 231.899C784.554 231.737 785.18 231.559 785.758 231.365V235.931C785.084 236.223 784.265 236.466 783.302 236.66C782.339 236.887 781.264 237 780.076 237C778.599 237 777.283 236.757 776.127 236.271C774.972 235.753 774.057 234.879 773.382 233.648C772.74 232.417 772.419 230.701 772.419 228.499V214.799H769.145V212.127L772.805 209.99L774.731 204.403H778.776V210.184H785.517V214.799H778.776V228.45C778.776 229.681 779.049 230.604 779.594 231.219C780.172 231.802 780.927 232.093 781.858 232.093Z" fill="white"/>
<path d="M803.845 214.799H798.067V236.514H791.662V214.799H787.906V211.884L791.71 210.136V208.338C791.71 206.071 792.031 204.29 792.673 202.994C793.315 201.699 794.262 200.776 795.514 200.225C796.766 199.642 798.291 199.351 800.089 199.351C801.277 199.351 802.352 199.464 803.315 199.691C804.311 199.885 805.194 200.112 805.964 200.371L804.423 204.938C803.942 204.776 803.396 204.63 802.786 204.5C802.208 204.338 801.598 204.257 800.956 204.257C799.961 204.257 799.222 204.63 798.741 205.375C798.291 206.12 798.067 207.156 798.067 208.484V210.184H803.845V214.799Z" fill="white"/>
<path d="M830.158 223.301C830.158 225.503 829.885 227.446 829.339 229.13C828.794 230.814 827.991 232.255 826.932 233.454C825.904 234.62 824.652 235.51 823.176 236.126C821.699 236.709 820.046 237 818.216 237C816.514 237 814.925 236.709 813.448 236.126C812.004 235.51 810.752 234.62 809.692 233.454C808.665 232.255 807.862 230.814 807.284 229.13C806.707 227.446 806.418 225.503 806.418 223.301C806.418 220.386 806.883 217.924 807.814 215.916C808.777 213.876 810.158 212.338 811.956 211.301C813.753 210.233 815.888 209.698 818.36 209.698C820.672 209.698 822.71 210.233 824.476 211.301C826.241 212.338 827.622 213.876 828.617 215.916C829.644 217.924 830.158 220.386 830.158 223.301ZM812.919 223.301C812.919 225.147 813.111 226.734 813.496 228.061C813.882 229.357 814.46 230.345 815.23 231.025C816.033 231.705 817.06 232.045 818.312 232.045C819.564 232.045 820.575 231.705 821.346 231.025C822.148 230.345 822.726 229.357 823.079 228.061C823.465 226.734 823.657 225.147 823.657 223.301C823.657 221.422 823.465 219.851 823.079 218.588C822.694 217.293 822.1 216.321 821.298 215.674C820.527 214.993 819.516 214.653 818.264 214.653C816.37 214.653 815.005 215.398 814.171 216.888C813.336 218.378 812.919 220.515 812.919 223.301Z" fill="white"/>
<path d="M849.084 209.698C849.534 209.698 849.999 209.714 850.481 209.747C850.962 209.779 851.364 209.844 851.685 209.941L851.107 215.625C850.786 215.56 850.401 215.512 849.951 215.479C849.534 215.414 849.084 215.382 848.603 215.382C847.8 215.382 847.014 215.544 846.243 215.868C845.473 216.159 844.783 216.613 844.173 217.228C843.563 217.811 843.065 218.572 842.68 219.511C842.327 220.451 842.15 221.568 842.15 222.863V236.514H835.745V210.184H840.657L841.524 214.751H841.861C842.343 213.811 842.937 212.969 843.643 212.224C844.381 211.447 845.2 210.832 846.099 210.378C847.03 209.925 848.025 209.698 849.084 209.698Z" fill="white"/>
<path d="M884.525 209.698C887.35 209.698 889.469 210.459 890.881 211.982C892.294 213.504 893 215.965 893 219.366V236.514H886.692V220.532C886.692 218.588 886.371 217.131 885.729 216.159C885.087 215.155 884.091 214.653 882.743 214.653C880.881 214.653 879.565 215.35 878.794 216.742C878.024 218.135 877.639 220.159 877.639 222.815V236.514H871.282V220.532C871.282 219.236 871.138 218.151 870.849 217.277C870.56 216.402 870.127 215.755 869.549 215.334C868.971 214.88 868.232 214.653 867.333 214.653C866.049 214.653 865.038 215.01 864.3 215.722C863.561 216.402 863.032 217.406 862.711 218.734C862.422 220.062 862.277 221.697 862.277 223.641V236.514H855.873V210.184H860.784L861.699 213.633H861.988C862.47 212.726 863.064 211.982 863.77 211.399C864.508 210.816 865.343 210.395 866.274 210.136C867.237 209.844 868.232 209.698 869.26 209.698C871.09 209.698 872.614 210.038 873.834 210.718C875.086 211.366 876.05 212.386 876.724 213.779H877.061C877.863 212.354 878.923 211.318 880.239 210.67C881.587 210.022 883.016 209.698 884.525 209.698Z" fill="white"/>
</svg>
