<svg width="1028" height="260" viewBox="0 0 1028 260" fill="none" xmlns="http://www.w3.org/2000/svg">
<path d="M145.464 145.07C156.976 165.205 197.864 225.282 250.325 197.141C247.566 167.721 218.143 135.539 145.464 145.07Z" fill="white"/>
<path d="M148.432 131.729C169.686 141.029 236.736 158.683 260.651 108.575C235.904 80.6476 191.558 90.3084 148.432 131.729Z" fill="white"/>
<path d="M142.664 119.609C164.998 113.329 230.51 82.965 216.251 34.6968C179.398 28.7882 149.732 60.2467 142.664 119.609Z" fill="white"/>
<path d="M133.698 116.689C145.88 96.9525 174.717 22.5247 131.026 0C99.9025 20.5915 98.6898 68.219 133.698 116.689Z" fill="white"/>
<path d="M124.464 123.591C121.348 100.61 100.067 27.8012 48.097 33.3173C37.1189 68.9737 66.6349 108.34 124.464 123.591Z" fill="white"/>
<path d="M116.391 131.329C99.3451 115.597 41.3912 74.5611 0 109.04C14.2583 143.518 62.0926 156.389 116.391 131.329Z" fill="white"/>
<path d="M117.104 143.246C93.9799 141.354 19.9787 141.981 13.5411 201.142C37.9165 209.1 93.1085 197.34 117.104 143.246Z" fill="white"/>
<path d="M124.3 151.967C105.53 165.598 51.702 210.94 85.4016 260C114.376 255.403 141.38 208.623 124.3 151.967Z" fill="white"/>
<path d="M135.872 151.822C130.932 174.481 120.927 244.128 178.741 258.344C197.312 235.644 186.335 182.761 135.872 151.822Z" fill="white"/>
<path d="M408.97 223.249C395.411 223.249 382.94 220.996 371.557 216.492C360.342 211.82 350.633 205.396 342.43 197.221C334.228 189.046 327.866 179.452 323.347 168.441C318.994 157.429 316.818 145.5 316.818 132.653C316.818 119.806 319.078 107.96 323.598 97.1152C328.285 86.1035 334.813 76.5935 343.183 68.585C351.721 60.4097 361.681 54.0696 373.064 49.5648C384.447 45.0601 396.918 42.8077 410.477 42.8077C419.851 42.8077 428.807 44.059 437.344 46.5617C445.882 49.0643 453.665 52.4846 460.696 56.8225C467.727 61.1605 473.586 66.1657 478.273 71.8384L454.921 96.3644C450.569 92.1933 445.965 88.6896 441.111 85.8532C436.424 82.8501 431.485 80.5977 426.296 79.0961C421.107 77.4277 415.75 76.5935 410.226 76.5935C402.358 76.5935 395.076 78.0116 388.381 80.848C381.852 83.6843 376.077 87.6051 371.055 92.6104C366.033 97.6157 362.099 103.539 359.253 110.379C356.575 117.22 355.236 124.644 355.236 132.653C355.236 140.494 356.659 147.919 359.505 154.926C362.518 161.767 366.535 167.773 371.557 172.945C376.746 177.951 382.773 181.955 389.636 184.958C396.499 187.794 403.865 189.213 411.732 189.213C417.257 189.213 422.53 188.378 427.552 186.71C432.573 185.042 436.926 182.706 440.609 179.703C444.459 176.533 447.388 172.862 449.397 168.691C451.417 164.819 452.499 160.731 452.644 156.428H407.464V125.145H488.819C488.986 126.98 489.154 129.232 489.321 131.902C489.656 134.571 489.823 137.241 489.823 139.91C489.991 142.413 490.074 144.415 490.074 145.917C490.074 157.262 487.982 167.69 483.797 177.2C479.779 186.71 474.088 194.885 466.722 201.726C459.524 208.566 450.987 213.905 441.111 217.743C431.234 221.413 420.521 223.249 408.97 223.249Z" fill="white"/>
<path d="M518.54 35.55V220.746H554.196V35.55H518.54Z" fill="white"/>
<path d="M634.855 223.249C625.146 223.249 616.776 221.163 609.745 216.992C602.882 212.654 597.525 206.564 593.675 198.723C589.992 190.714 588.151 181.121 588.151 169.942V88.3559H623.806V164.186C623.806 170.193 624.811 175.448 626.82 179.953C628.828 184.291 631.674 187.628 635.357 189.963C639.04 192.299 643.559 193.467 648.916 193.467C652.766 193.467 656.365 192.883 659.713 191.715C663.061 190.381 665.907 188.545 668.25 186.209C670.594 183.874 672.435 181.121 673.774 177.951C675.114 174.781 675.783 171.36 675.783 167.69V88.3559H711.439V220.746H677.541L676.7 202.469C675.515 204.111 674.206 205.699 672.77 207.232C668.083 212.237 662.475 216.158 655.947 218.994C649.418 221.831 642.388 223.249 634.855 223.249Z" fill="white"/>
<path fill-rule="evenodd" clip-rule="evenodd" d="M809.086 223.249C795.526 223.249 783.39 220.329 772.677 214.489C762.131 208.483 753.761 200.308 747.567 189.963C741.541 179.619 738.528 167.773 738.528 154.426C738.528 141.078 741.541 129.316 747.567 119.138C753.761 108.794 762.131 100.619 772.677 94.6125C783.39 88.6062 795.526 85.603 809.086 85.603C822.477 85.603 834.446 88.6062 844.992 94.6125C855.706 100.619 864.076 108.794 870.102 119.138C876.128 129.316 879.141 141.078 879.141 154.426C879.141 167.773 876.128 179.619 870.102 189.963C864.076 200.308 855.706 208.483 844.992 214.489C834.446 220.329 822.477 223.249 809.086 223.249ZM826.662 187.461C821.473 190.631 815.614 192.216 809.086 192.216C802.39 192.216 796.447 190.631 791.258 187.461C786.069 184.124 781.967 179.619 778.954 173.946C775.941 168.107 774.518 161.6 774.686 154.426C774.518 147.085 775.941 140.578 778.954 134.905C781.967 129.232 786.069 124.728 791.258 121.391C796.447 118.054 802.39 116.386 809.086 116.386C815.614 116.386 821.473 118.054 826.662 121.391C831.852 124.561 835.869 129.066 838.715 134.905C841.728 140.578 843.235 147.085 843.235 154.426C843.235 161.6 841.728 168.107 838.715 173.946C835.869 179.619 831.852 184.124 826.662 187.461Z" fill="white"/>
<path d="M905.967 220.746V88.3559H940.116L940.761 105.696C941.72 104.471 942.761 103.279 943.883 102.12C948.737 97.1152 954.513 93.1109 961.209 90.1078C967.904 87.1046 974.935 85.603 982.301 85.603C992.344 85.603 1000.71 87.6051 1007.41 91.6093C1014.27 95.6136 1019.38 101.703 1022.73 109.879C1026.24 117.887 1028 127.814 1028 139.66V220.746H992.344V142.413C992.344 136.407 991.507 131.401 989.833 127.397C988.159 123.393 985.565 120.473 982.049 118.638C978.701 116.636 974.517 115.802 969.495 116.135C965.477 116.135 961.711 116.803 958.195 118.137C954.847 119.305 951.918 121.057 949.407 123.393C947.063 125.729 945.138 128.398 943.632 131.401C942.293 134.405 941.623 137.658 941.623 141.162V220.746H924.046H913.751H905.967Z" fill="white"/>
</svg>
