<svg width="556" height="214" viewBox="0 0 556 214" fill="none" xmlns="http://www.w3.org/2000/svg">
<path d="M357.172 157.491L364.529 141.999C373.116 126.326 391.129 103.723 411.271 106.724C420.727 108.134 422.857 115.685 422.317 124.136C421.947 129.877 415.519 150.17 420.827 153.38C432.673 155.811 432.753 148.37 436.921 140.989C446.777 123.516 464.47 106.703 485.632 105.783C493.139 105.453 496.588 107.044 497.997 114.775C508.873 113.605 519.899 110.954 518.859 125.546C517.77 140.758 511.782 157.351 510.732 172.873C508.823 201.087 526.706 182.125 535.823 172.503C539.461 168.663 547.658 154.721 553.586 163.702C562.272 176.874 545.419 193.406 536.203 201.357C518.869 216.31 497.907 219 489.001 194.226C482.943 201.958 477.056 209.018 467.119 211.679C443.978 217.86 428.704 199.547 428.334 177.744C415.319 182.415 397.526 181.174 392.248 166.262C389.33 158.041 392.158 150.66 391.679 142.249C388.62 139.488 383.552 145.379 381.593 147.82C368.947 163.582 366.298 183.605 359.651 201.567C353.064 219.37 333.731 215.559 331.712 197.977C313.529 215.89 287.299 220.48 275.174 193.496C271.895 196.507 269.506 200.247 266.207 203.248C250.513 217.54 227.762 216.22 216.007 197.997C205.481 209.139 186.138 218.46 171.674 209.369C150.322 195.947 159.299 150.29 164.317 129.757C167.655 116.095 169.185 104.543 186.718 106.614C199.193 108.094 195.135 118.655 193.675 127.657C191.456 141.319 182.45 170.803 186.928 182.855C190.706 193.026 201.862 184.055 206.28 179.254C212.648 172.323 210.489 167.492 212.238 158.981C217.876 131.577 241.197 108.474 269.246 105.093C270.995 86.6206 273.904 68.1779 278.932 50.3252C283.501 34.1329 293.797 2.46821 313.469 0.187872C328.363 -1.54238 336.47 8.89919 339.029 22.4212C345.936 58.9865 321.156 113.935 304.422 146.279C300.614 153.64 294.616 159.911 295.016 168.403C295.706 182.905 302.013 193.456 316.698 183.295C319.527 181.334 327.194 174.204 328.793 171.413C330.642 168.173 329.853 160.852 330.252 157.131C331.342 147.099 335.39 118.655 341.838 111.764C346.626 106.654 365.139 102.623 366.178 111.474C366.818 116.835 360.391 136.928 359.061 143.989C358.222 148.44 357.582 152.98 357.212 157.491H357.172ZM295.736 125.256C303.323 107.144 311.09 88.9209 315.458 69.658C318.057 58.1963 321.456 38.0635 317.997 26.9118C317.527 25.4016 316.858 23.5513 315.478 22.6412C310.96 21.311 307.361 34.3028 306.442 37.4033C299.065 62.3069 296.745 95.7319 294.966 121.866C294.916 122.666 294.456 125.406 295.736 125.256ZM491.24 127.517C474.946 127.857 462.791 145.079 459.112 159.441C457.193 166.922 454.104 184.025 462.261 188.366C473.767 194.486 480.444 177.924 482.643 169.493C486.192 155.851 487.871 141.239 491.25 127.517H491.24ZM267.277 129.007C249.764 135.108 238.748 155.451 239.108 173.473C239.448 190.946 250.803 194.806 262.429 182.235C264.728 179.744 268.896 174.734 268.816 171.393C268.656 164.572 266.547 156.021 266.507 148.9L267.277 129.007ZM52.7999 123.656C71.1228 132.507 119.574 143.159 107.359 171.723C98.8321 191.666 53.8295 192.116 38.3155 182.375C24.8108 173.893 33.2775 162.252 31.3082 150.41C29.5589 139.918 11.7258 138.828 5.55822 147.049C-5.9873 162.432 1.7497 189.946 16.8838 200.827C49.6311 224.381 129.83 217.61 139.606 170.263C149.752 121.106 101.491 114.455 69.2835 98.1722C54.3093 90.6011 41.3244 77.6992 50.9406 59.7966C60.5569 41.894 100.142 41.3039 113.746 52.9256C127.351 64.5473 108.928 88.0307 127.201 92.6814C149.362 98.3223 152.091 65.3274 147.053 51.0753C137.807 24.9115 104.29 18.8606 79.8794 20.5508C14.3548 25.0915 -11.3352 92.6914 52.7999 123.666V123.656Z" fill="white"/>
<path d="M187.747 56.4962C195.524 56.0361 206.09 59.9667 207.29 68.7279C209.079 81.7098 201.372 91.4513 188.247 92.2614C159.488 94.0217 159.988 58.1264 187.747 56.4962Z" fill="white"/>
</svg>
