<svg width="727" height="230" viewBox="0 0 727 230" fill="none" xmlns="http://www.w3.org/2000/svg">
<path d="M530.633 3.56612L513.775 163.112L576.725 3.56612H623.577L568.106 226.766H537.381L578.225 59.7335L510.776 226.766H481.921L498.038 58.2341L455.685 226.766H424.96L480.421 3.56612H530.633Z" fill="white"/>
<path d="M424.07 0.0175509C443.577 -0.412276 464.003 6.99474 466.923 28.656L423.83 201.307C410.632 222.648 386.136 231.644 361.63 229.755C327.926 227.146 322.977 203.156 328.776 174.477C337.344 132.134 351.282 89.3816 361.04 47.1786C371.049 18.73 393.225 0.697277 424.06 0.0175509H424.07ZM391.715 192.05C395.025 188.901 397.644 183.134 399.114 178.846C409.712 133.574 423.62 88.6519 431.619 42.9703C430.469 32.2546 419.631 30.6452 410.872 33.3041C397.504 37.3625 395.105 51.2569 391.885 63.0222C381.217 101.966 373.108 141.74 362.84 180.805C358.671 199.697 381.057 202.196 391.715 192.06V192.05Z" fill="white"/>
<path d="M205.356 3.56612L161.234 183.044C159.894 194.179 166.203 198.168 176.541 197.588C187.309 196.988 193.568 190.161 196.898 180.495L241.33 3.56612H262.317L252.578 42.5104H265.316L231.962 176.576C224.183 206.534 203.237 228.016 171.292 229.795C142.117 231.414 122.74 219.659 125.17 188.202C138.467 126.267 156.014 65.3112 170.122 3.55612H205.346L205.356 3.56612Z" fill="white"/>
<path d="M139.407 3.56612L127.339 146.179C123.37 164.711 115.291 184.533 118.61 203.736C119.13 206.744 121.22 211.242 121.39 213.751C121.62 217.14 120.08 223.108 119.91 226.776H85.8058L84.826 225.087L89.1753 183.334H49.4518L31.8347 226.776H0L91.4349 3.56612H139.407ZM92.9347 152.616L104.553 42.5004L62.2097 152.616H92.9347Z" fill="white"/>
<path d="M727 3.56612L719.411 34.9235L658.901 35.1234L643.804 94.1996H691.776L684.207 126.327L635.595 126.437L619.078 194.559H679.038L671.539 226.766H575.605L631.066 3.56612H727Z" fill="white"/>
<path d="M378.488 3.56612C377.798 11.5529 370.779 15.4813 366.19 21.6089C363.13 25.6872 360.711 30.2054 358.261 34.6636C355.711 36.213 339.864 34.1838 335.385 35.0235C334.515 35.1834 333.935 35.3433 333.635 36.2729L285.173 226.776H251.069L298.291 35.0335H262.317L270.185 3.57612H378.488V3.56612Z" fill="white"/>
</svg>
