<svg width="844" height="218" viewBox="0 0 844 218" fill="none" xmlns="http://www.w3.org/2000/svg">
<path d="M194.799 178.456C149.128 233.729 60.1957 230.825 19.4966 171.211C-38.0505 86.9105 40.6865 -23.0161 139.763 4.23606C215.489 25.0618 244.682 118.074 194.799 178.456ZM119.253 17.2285C90.2598 13.7059 58.7451 25.3811 40.2964 48.1428C44.3583 48.2127 48.4802 48.8114 52.4821 49.46C56.484 50.1086 67.4891 53.212 69.8502 53.0823C71.6911 52.9825 74.6325 48.8214 78.4643 47.8434C82.2961 46.8655 85.8378 47.8335 88.5691 47.1848C89.8797 46.8755 103.186 28.9136 106.738 27.1773L119.253 17.2384V17.2285ZM175.88 43.5126C170.928 38.4334 149.238 22.5771 142.845 23.2157C140.424 23.4552 132.04 27.5465 129.558 29.0035C118.453 35.5096 109.959 46.5262 101.225 55.6668C104.166 58.2314 103.666 66.0847 105.227 67.6514C106.267 68.6892 110.9 69.7569 112.941 70.9244C132.1 81.8612 150.198 95.153 164.145 112.386L166.206 113.015C168.177 108.804 171.658 105.451 174.029 101.35C181.543 88.3873 184.344 74.5866 183.264 59.5885C182.693 51.6553 181.303 49.0808 175.88 43.5126ZM64.0576 68.3399C52.3121 63.9193 39.8161 63.6299 27.4103 64.2286C22.7881 76.5126 18.076 89.1856 17.2656 102.487C16.5752 113.883 16.7553 117.096 24.2788 125.508C33.3131 135.597 46.9795 142.852 59.7756 146.953C57.0943 130.528 57.9447 113.215 63.0071 97.2585C63.8875 94.4844 69.27 83.5676 69.27 82.5697C69.27 81.1727 63.1672 72.0919 64.0576 68.3399ZM199.211 80.085C197.72 78.2489 197.47 80.3444 197.25 81.6017C194.099 99.2443 187.736 112.566 175.33 125.628C180.452 134.839 188.426 143.161 190.227 153.928C192.568 154.377 191.818 153.719 192.438 152.641C204.364 131.925 203.853 102.807 199.211 80.085ZM99.7543 82.3501C98.8439 82.42 88.459 92.2591 83.2165 88.4971C75.6429 103.495 72.9117 120.689 74.3024 137.443C75.1728 148.001 74.9327 150.525 85.7778 149.917C110.469 148.53 135.471 139.509 154.23 123.483C142.955 111.877 130.919 100.312 117.183 91.6304C114.911 90.2035 100.995 82.2404 99.7643 82.3302L99.7543 82.3501ZM164.225 135.966L142.925 150.106C123.996 160.145 102.636 164.885 81.2857 165.394C87.0684 175.003 93.1612 184.493 101.795 191.818C104.026 193.704 111.21 199.172 113.541 200.05C122.745 203.543 145.526 194.981 154.26 190.371C158.902 187.916 177.831 175.373 179.062 171.171C181.253 163.637 167.276 143.49 164.225 135.966ZM64.1476 163.049C54.7132 162.42 44.7785 158.638 36.4245 154.307C34.8838 153.509 24.8191 146.464 24.3089 146.953C35.0239 168.767 52.5222 186.17 75.3029 195.32C78.4644 196.588 82.8864 198.364 86.278 198.334C76.2933 188.545 68.5897 176.38 64.1576 163.039L64.1476 163.049Z" fill="white"/>
<path d="M666.981 67.1125V101.04H699.967V67.1125H716.955V151.932H699.967V116.009H666.981V151.932H649.993V67.1125H666.981Z" fill="white"/>
<path d="M269.184 124.99C266.983 143.131 300.639 142.303 297.137 124.511C295.416 115.759 272.025 115.38 264.282 111.418C258.219 108.325 253.426 102.058 252.446 95.2927C246.913 56.984 312.864 55.2677 313.145 92.0595C312.784 92.5585 311.874 91.0617 311.654 91.0617H296.657C296.447 91.0617 295.566 92.4786 295.166 92.0695C295.166 76.2731 266.703 77.0015 270.374 93.3468C272.245 101.649 293.045 102.457 300.419 105.261C309.833 108.844 315.086 116.178 315.025 126.387C314.825 163.079 250.075 161.243 251.165 125H269.154L269.184 124.99Z" fill="white"/>
<path d="M799.914 67.1125V98.0468C821.584 78.2389 846.585 100.192 843.784 126.387C841.393 148.679 817.462 162.769 799.923 145.945V151.932H782.925V67.1125H799.914ZM810.639 105.271C793.531 108.375 794.691 143.091 818.192 137.752C832.249 134.559 831.779 101.44 810.639 105.271Z" fill="white"/>
<path d="M461.084 125.987H420.105C418.644 137.663 433.291 144.628 441.695 137.024C442.846 135.976 442.926 133.971 443.096 133.971H460.084C450.049 163.019 406.559 157.55 403.217 126.387C398.195 79.4164 465.336 78.8077 461.084 125.987ZM444.096 115.011C442.926 99.7033 421.416 100.362 420.105 115.011H444.096Z" fill="white"/>
<path d="M643 125.987H602.021C603.261 134.19 606.423 139.858 615.517 140.038C623.571 140.197 625.852 133.971 626.512 133.971H643C634.116 161.951 588.944 157.81 585.973 128.532C580.911 78.5482 647.422 78.3087 643 125.987ZM627.002 115.011C625.662 99.6933 604.061 100.492 602.011 115.011H627.002Z" fill="white"/>
<path d="M521.052 151.932H504.064V112.516C504.064 112.227 501.593 108.046 501.033 107.557C494.23 101.629 482.074 107.836 482.074 116.508V151.932H466.087V92.0595H482.074V98.0468C490.878 87.9283 509.427 87.8784 516.89 99.7033C518.171 101.729 521.052 109.522 521.052 111.518V151.932Z" fill="white"/>
<path d="M738.945 92.0595V130.478C738.945 131.117 741.976 135.737 742.997 136.415C747.179 139.16 754.712 138.75 757.964 134.499C758.824 133.362 760.935 128.512 760.935 127.494V92.0695H776.923V151.942H760.935L760.445 145.955C753.602 155.355 737.484 155.185 729.3 147.602C727.82 146.224 722.957 138.082 722.957 136.475V92.0695H738.945V92.0595Z" fill="white"/>
<path d="M583.021 130.977C570.025 168.607 519.442 155.335 525.314 114.771C529.796 83.817 578.539 81.7215 582.011 114.013L567.454 113.694C558.5 99.2443 540.251 105.541 540.992 122.525C541.592 136.136 554.778 143.061 565.063 133.472C565.883 132.703 565.883 130.977 566.014 130.977H583.021Z" fill="white"/>
<path d="M375.134 130.977C374.223 141.604 363.008 151.573 352.533 152.82C324.57 156.143 308.803 126.287 323.139 103.515C336.366 82.4899 372.833 87.8285 375.124 114.013C370.732 111.289 364.349 115.091 360.807 113.873C359.056 113.274 357.015 107.656 353.193 106.479C326.391 98.2364 329.392 146.564 353.544 136.864C358.096 135.038 358.716 130.977 359.136 130.977H375.134Z" fill="white"/>
<path d="M397.114 92.0595H381.127V151.932H397.114V92.0595Z" fill="white"/>
<path d="M384.828 66.3242C398.085 62.3826 403.437 81.003 392.182 84.6253C378.115 89.1457 375.114 69.2081 384.828 66.3242Z" fill="white"/>
</svg>
